<svg width="278" height="301" viewBox="0 0 278 301" fill="none" xmlns="http://www.w3.org/2000/svg">
<path d="M254.857 223.799H211.884C209.851 223.799 208.198 225.82 208.198 228.308V297.656H258.534V228.308C258.543 225.82 256.891 223.799 254.857 223.799Z" fill="#D0F0E4"/>
<path d="M254.857 223.799H211.884C209.851 223.799 208.198 225.82 208.198 228.308V297.656H258.534V228.308C258.543 225.82 256.891 223.799 254.857 223.799Z" stroke="#FFCF2D" stroke-width="6" stroke-miterlimit="10"/>
<path d="M264.417 145.889H202.406V297.645H264.417V145.889Z" stroke="#FFCF2D" stroke-width="6" stroke-miterlimit="10"/>
<path d="M266.043 126.889H53.3774V145.889H278" stroke="#FFCF2D" stroke-width="6" stroke-miterlimit="10"/>
<path d="M254.857 181.557H211.966C209.932 181.557 208.28 179.536 208.28 177.049V158.527C208.28 156.039 209.932 154.018 211.966 154.018H254.857C256.891 154.018 258.543 156.039 258.543 158.527V177.06C258.543 179.548 256.891 181.557 254.857 181.557Z" stroke="#FFCF2D" stroke-width="6" stroke-miterlimit="10"/>
<path d="M254.857 215.093H211.966C209.932 215.093 208.28 213.072 208.28 210.585V192.062C208.28 189.575 209.932 187.554 211.966 187.554H254.857C256.891 187.554 258.543 189.575 258.543 192.062V210.585C258.543 213.072 256.891 215.093 254.857 215.093Z" stroke="#FFCF2D" stroke-width="6" stroke-miterlimit="10"/>
<path d="M233.557 171.164C235.186 171.164 236.508 169.548 236.508 167.555C236.508 165.561 235.186 163.946 233.557 163.946C231.927 163.946 230.606 165.561 230.606 167.555C230.606 169.548 231.927 171.164 233.557 171.164Z" stroke="#66B0F0" stroke-width="6" stroke-miterlimit="10"/>
<path d="M233.557 204.799C235.186 204.799 236.508 203.183 236.508 201.19C236.508 199.197 235.186 197.581 233.557 197.581C231.927 197.581 230.606 199.197 230.606 201.19C230.606 203.183 231.927 204.799 233.557 204.799Z" stroke="#66B0F0" stroke-width="6" stroke-miterlimit="10"/>
<path d="M251.979 246.897L251.915 247.374L251.888 247.652L250.944 255.014L250.844 255.803L250.417 259.156L250.263 260.333L249.863 263.443L249.763 264.231L248.792 271.849V271.882L248.692 272.671L248.637 273.026L247.711 280.31L247.612 281.099L247.176 284.53V284.541L247.021 285.718L246.631 288.739L246.531 289.527L245.56 297.178L245.551 297.223L245.505 297.578L245.496 297.656H219.983L219.974 297.567L219.929 297.256L219.92 297.156L218.939 289.516L218.839 288.717L218.458 285.752L218.313 284.564L217.868 281.077L217.768 280.288L216.842 273.059L216.787 272.648L216.687 271.871V271.86L215.707 264.209L215.607 263.42L215.216 260.367L215.071 259.19L214.635 255.78L214.536 254.992L213.6 247.685L213.5 246.897H251.979Z" fill="white"/>
<path d="M245.741 298H219.737L219.629 297.178L213.164 246.552H252.305L245.741 298ZM220.219 297.311H245.25L251.642 247.252H213.818L220.219 297.311Z" fill="#66B0F0"/>
<path d="M252.333 246.897C252.333 247.052 252.315 247.219 252.269 247.374C251.961 248.54 250.544 249.617 248.32 250.506C248.156 250.572 247.993 250.628 247.83 250.694C246.395 251.216 244.679 251.672 242.745 252.016C242.563 252.049 242.382 252.082 242.191 252.116C240.484 252.405 238.623 252.616 236.653 252.738C236.453 252.749 236.262 252.76 236.063 252.771C234.982 252.827 233.865 252.86 232.731 252.86C231.859 252.86 230.996 252.838 230.152 252.804C229.943 252.793 229.734 252.782 229.526 252.771C227.256 252.66 225.113 252.427 223.17 252.094C222.934 252.049 222.707 252.016 222.48 251.971C219.184 251.361 216.533 250.461 214.908 249.384C213.964 248.762 213.373 248.085 213.183 247.374L213.128 246.908C213.128 243.621 221.899 240.967 232.721 240.967C243.48 240.967 252.215 243.599 252.315 246.863C252.333 246.863 252.333 246.874 252.333 246.897Z" fill="#66B0F0"/>
<path d="M245.569 297.189V297.634L245.505 297.578L245.496 297.645H245.26L242.364 293.07L242.064 292.592L239.149 287.995L238.85 287.517L235.935 282.92L235.636 282.442L232.721 277.845L232.422 277.368L229.507 272.77L229.208 272.293L226.302 267.696L226.003 267.218L223.088 262.621L222.789 262.143L219.883 257.546L219.584 257.068L216.678 252.471L216.379 251.994L213.591 247.596L213.546 247.274C213.727 247.974 214.308 248.64 215.235 249.251L216.669 251.516L216.969 251.994L219.883 256.591L220.183 257.068L223.097 261.666L223.397 262.143L226.311 266.741L226.611 267.218L229.525 271.815L229.825 272.293L232.739 276.89L233.039 277.368L235.954 281.965L236.253 282.442L239.168 287.04L239.467 287.517L242.382 292.115L242.681 292.592L245.578 297.167L245.569 297.189Z" fill="#66B0F0"/>
<path d="M246.631 288.739L246.531 289.527L245.568 288.006L245.269 287.529L242.354 282.931L242.055 282.454L239.14 277.856L238.841 277.379L235.926 272.782L235.627 272.304L232.712 267.707L232.413 267.229L229.525 262.676L229.226 262.199L226.311 257.602L226.012 257.124L223.097 252.527L222.798 252.049L222.67 251.849C222.888 251.894 223.115 251.927 223.342 251.972L223.388 252.049L226.302 256.647L226.602 257.124L229.516 261.721L229.816 262.199L232.73 266.796L233.03 267.274L235.944 271.871L236.244 272.349L239.158 276.946L239.458 277.423L242.373 282.021L242.672 282.498L245.587 287.095L245.886 287.573L246.631 288.739Z" fill="#66B0F0"/>
<path d="M247.711 280.31L247.611 281.099L245.569 277.879L245.269 277.401L242.355 272.804L242.055 272.326L239.14 267.729L238.841 267.251L235.926 262.654L235.627 262.177L232.712 257.579L232.413 257.102L229.571 252.616C229.78 252.627 229.979 252.638 230.188 252.649L232.712 256.624L233.012 257.102L235.926 261.699L236.226 262.177L239.14 266.774L239.44 267.251L242.355 271.849L242.654 272.326L245.569 276.924L245.868 277.401L247.711 280.31Z" fill="#66B0F0"/>
<path d="M248.792 271.882L248.692 272.67L248.483 272.337L245.569 267.74L245.269 267.262L242.355 262.665L242.055 262.188L239.14 257.59L238.841 257.113L235.999 252.627C236.19 252.615 236.389 252.604 236.58 252.593L239.14 256.635L239.44 257.113L242.355 261.71L242.654 262.188L245.569 266.785L245.868 267.262L248.783 271.86L248.792 271.882Z" fill="#66B0F0"/>
<path d="M226.493 297.478L226.311 297.645L226.302 297.656H226.002L223.097 293.081L222.797 292.603L219.892 288.006L219.592 287.539L218.458 285.752L218.312 284.563L219.892 287.062L220.192 287.539L223.097 292.126L223.397 292.603L226.311 297.2L226.493 297.478Z" fill="#66B0F0"/>
<path d="M220.065 297.478L219.974 297.567L219.928 297.256L220.065 297.478Z" fill="#66B0F0"/>
<path d="M232.912 297.478L232.73 297.645L232.721 297.656H232.422L229.525 293.081L229.226 292.603L226.311 288.006L226.012 287.539L223.097 282.942L222.798 282.476V282.465L219.892 277.878L219.593 277.401L216.842 273.059L216.787 272.648L216.687 271.871L216.978 272.337L219.892 276.935L220.192 277.401L223.097 281.998L223.397 282.476L226.311 287.062L226.611 287.539L229.525 292.126L229.825 292.603L232.73 297.2L232.912 297.478Z" fill="#66B0F0"/>
<path d="M239.331 297.478L239.149 297.645L239.14 297.656H238.841L235.944 293.081L235.645 292.603L232.73 288.006L232.431 287.54L229.525 282.942L229.226 282.476L226.311 277.879L226.012 277.401L223.097 272.815L222.798 272.337L219.892 267.74L219.593 267.274L216.678 262.676L216.378 262.21L215.216 260.367L215.071 259.19L216.678 261.733L216.978 262.21L219.892 266.796L220.192 267.274L223.097 271.86L223.397 272.337L226.311 276.935L226.611 277.401L229.525 281.998L229.825 282.476L232.73 287.062L233.03 287.54L235.944 292.126L236.244 292.603L239.149 297.201L239.331 297.478Z" fill="#66B0F0"/>
<path d="M249.863 263.442L249.763 264.231L248.783 262.676L248.483 262.199L245.568 257.601L245.269 257.124L242.354 252.527L242.055 252.049L242.018 251.994C242.2 251.96 242.382 251.927 242.554 251.894L242.654 252.049L245.568 256.646L245.868 257.124L248.783 261.721L249.082 262.199L249.863 263.442Z" fill="#66B0F0"/>
<path d="M250.943 255.014L250.844 255.803L248.783 252.549L248.483 252.071L247.566 250.617C247.729 250.561 247.893 250.495 248.047 250.428L248.783 251.594L249.082 252.071L250.943 255.014Z" fill="#66B0F0"/>
<path d="M252.242 247.074L251.988 247.474L251.915 247.363C251.96 247.208 251.978 247.052 251.978 246.897C251.978 246.874 251.978 246.863 251.978 246.841L251.988 246.83L252.242 247.074Z" fill="#66B0F0"/>
<path d="M250.417 259.156L250.263 260.333L249.082 262.21L248.783 262.676L245.868 267.274L245.569 267.74L242.663 272.337L242.364 272.815L239.449 277.401L239.149 277.879L236.244 282.476L235.944 282.942L233.03 287.54L232.73 288.006L229.825 292.603L229.525 293.081L226.62 297.656H226.32L226.311 297.645L226.139 297.478L226.311 297.201L229.226 292.603L229.525 292.126L232.431 287.54L232.73 287.062L235.645 282.476L235.944 281.998L238.85 277.401L239.149 276.935L242.064 272.337L242.364 271.86L245.269 267.274L245.569 266.796L248.483 262.21L248.783 261.733L250.417 259.156Z" fill="#66B0F0"/>
<path d="M251.888 247.652L249.082 252.082L248.783 252.56L245.868 257.157L245.569 257.635L242.654 262.232L242.355 262.71L239.44 267.307L239.141 267.784L236.244 272.337L235.945 272.815L233.03 277.412L232.731 277.89L229.816 282.487L229.516 282.964L226.602 287.562L226.302 288.039L223.388 292.636L223.088 293.114L220.192 297.689H219.974L219.965 297.6L219.929 297.289L219.892 297.234L219.92 297.189L222.807 292.636L223.106 292.159L226.021 287.562L226.321 287.084L229.235 282.487L229.535 282.009L232.449 277.412L232.749 276.935L235.663 272.337L235.963 271.86L238.877 267.262L239.177 266.785L242.091 262.188L242.391 261.71L245.305 257.113L245.605 256.635L248.51 252.038L248.81 251.561L250.235 249.306C251.171 248.696 251.761 248.029 251.951 247.319L251.888 247.652Z" fill="#66B0F0"/>
<path d="M242.781 251.883L242.654 252.083L242.355 252.56L239.44 257.157L239.141 257.635L236.226 262.232L235.926 262.71L233.012 267.307L232.712 267.784L229.798 272.382L229.498 272.859L226.584 277.457L226.284 277.934L223.37 282.531L223.07 283.009L220.156 287.606L219.856 288.084L218.903 289.583L218.803 288.794L219.556 287.606L219.856 287.129L222.761 282.531L223.061 282.054L225.976 277.457L226.275 276.979L229.181 272.382L229.48 271.904L232.395 267.307L232.694 266.829L235.609 262.232L235.908 261.755L238.823 257.157L239.122 256.68L242.037 252.083L242.082 252.005C242.237 251.983 242.391 251.949 242.536 251.927C242.636 251.905 242.709 251.894 242.781 251.883Z" fill="#66B0F0"/>
<path d="M235.872 252.66L233.03 257.135L232.731 257.613L229.816 262.21L229.516 262.687L226.602 267.285L226.302 267.762L223.388 272.36L223.088 272.837L220.174 277.434L219.874 277.912L217.849 281.11L217.75 280.322L219.575 277.434L219.874 276.957L222.789 272.36L223.088 271.882L226.003 267.285L226.302 266.807L229.217 262.21L229.516 261.732L232.431 257.135L232.731 256.658L235.255 252.682C235.454 252.682 235.663 252.671 235.872 252.66Z" fill="#66B0F0"/>
<path d="M247.176 284.541L247.021 285.718L245.868 287.54L245.569 288.006L242.663 292.603L242.364 293.081L239.458 297.656H239.159L239.149 297.645L238.977 297.478L239.149 297.201L242.064 292.603L242.364 292.126L245.269 287.54L245.569 287.062L247.176 284.541Z" fill="#66B0F0"/>
<path d="M248.637 273.026L245.868 277.401L245.569 277.879L242.663 282.476L242.364 282.942L239.449 287.54L239.15 288.006L236.244 292.603L235.945 293.081L233.039 297.656H232.74L232.731 297.645L232.558 297.478L232.731 297.201L235.645 292.603L235.945 292.126L238.85 287.54L239.15 287.062L242.064 282.476L242.364 281.998L245.269 277.401L245.569 276.935L248.483 272.337L248.783 271.86L248.792 271.849V271.882L248.692 272.67L248.637 273.026Z" fill="#66B0F0"/>
<path d="M229.453 252.649L226.611 257.135L226.311 257.613L223.397 262.21L223.097 262.687L220.183 267.285L219.883 267.762L216.969 272.36L216.778 272.671L216.678 271.904L216.669 271.893L216.678 271.882L219.584 267.296L219.883 266.818L222.789 262.221L223.088 261.744L226.003 257.146L226.302 256.669L228.863 252.627C229.072 252.627 229.262 252.638 229.453 252.649Z" fill="#66B0F0"/>
<path d="M223.442 252.016L223.406 252.082L223.106 252.56L220.192 257.157L219.892 257.635L216.978 262.232L216.678 262.71L215.707 264.242L215.607 263.454L216.379 262.232L216.678 261.755L219.584 257.157L219.883 256.68L222.798 252.082L222.898 251.927C223.043 251.949 223.197 251.983 223.351 252.005L223.442 252.016Z" fill="#66B0F0"/>
<path d="M217.904 250.617L216.978 252.071L216.678 252.549L214.626 255.78L214.526 254.992L216.379 252.071L216.678 251.594L217.423 250.428C217.577 250.495 217.74 250.561 217.904 250.617Z" fill="#66B0F0"/>
<path d="M253.849 240.378H245.469V237.258H250.553C252.142 237.258 253.468 238.59 253.849 240.378Z" fill="white" stroke="#FFCF2D" stroke-width="5" stroke-miterlimit="10"/>
<path d="M250.608 237.259C248.229 237.292 246.15 239.235 245.514 242.045L243.58 250.629C243.308 250.684 243.027 250.74 242.745 250.784C242.563 250.817 242.382 250.851 242.191 250.884C240.484 251.173 238.623 251.384 236.653 251.506C236.453 251.517 236.262 251.528 236.063 251.539C234.982 251.595 233.865 251.628 232.731 251.628C231.859 251.628 230.996 251.606 230.152 251.573C229.943 251.561 229.734 251.55 229.526 251.539C229.444 251.539 229.362 251.528 229.28 251.528L231.423 242.045C232.059 239.213 234.165 237.259 236.571 237.259H250.608Z" fill="white" stroke="#FFCF2D" stroke-width="5" stroke-miterlimit="10"/>
<path d="M244.869 52.2216L266.306 126.889H187.806L208.67 52.2216H244.869Z" fill="#FFCF2D"/>
<path d="M226.938 43.3277C226.938 40.2184 228.999 37.6976 231.541 37.6976H234.201C236.743 37.6976 238.804 40.2184 238.804 43.3277V116.185" stroke="#66B0F0" stroke-width="6" stroke-miterlimit="10"/>
<path d="M244.987 124.513V126.768H225.576V124.513C225.576 122.592 226.111 120.816 227.01 119.405C228.254 117.451 230.206 116.185 232.385 116.185H238.169C238.26 116.185 238.36 116.185 238.45 116.196C242.091 116.374 244.987 120.027 244.987 124.513Z" fill="white" stroke="#FE5244" stroke-width="6" stroke-miterlimit="10"/>
<path d="M249.3 52.5329H204.385V50.8117C204.385 46.6918 207.118 43.3605 210.477 43.3605H243.208C246.577 43.3605 249.3 46.703 249.3 50.8117V52.5329Z" fill="#FE5244"/>
<path d="M249.3 51.1561H204.385" stroke="white" stroke-width="5" stroke-miterlimit="10" stroke-linecap="round"/>
<path d="M244.606 52.5332C244.606 54.4987 243.608 56.0978 242.364 56.0978H210.931C209.696 56.0978 208.688 54.4987 208.688 52.5332H244.606Z" fill="white"/>
<path d="M238.805 118.361C238.805 121.926 236.144 124.824 232.867 124.824C229.916 124.824 227.464 122.481 227.01 119.405C228.254 117.451 230.206 116.185 232.385 116.185H238.169C238.26 116.185 238.36 116.185 238.45 116.196C238.687 116.873 238.805 117.606 238.805 118.361Z" fill="white" stroke="#FE5244" stroke-width="6" stroke-miterlimit="10"/>
<path d="M233.03 114.663V118.15C233.03 118.861 232.494 119.438 231.841 119.438C231.187 119.438 230.651 118.861 230.651 118.15V114.663H230.669C230.778 115.274 231.26 115.741 231.832 115.741C232.404 115.741 232.885 115.274 232.994 114.663H233.03Z" fill="#FE5244"/>
<path d="M232.776 114.541C232.776 114.619 232.767 114.697 232.758 114.774C232.676 115.33 232.295 115.741 231.832 115.741C231.378 115.741 230.996 115.33 230.906 114.774C230.897 114.697 230.887 114.619 230.887 114.541C230.887 113.875 231.305 113.342 231.832 113.342C232.349 113.342 232.776 113.886 232.776 114.541Z" fill="white" stroke="#FE5244" stroke-width="6" stroke-miterlimit="10"/>
<path d="M201.851 76.2745H198.746V126.889H201.851V76.2745Z" fill="#3FB1B5"/>
<path d="M197.448 126.889H192.127C191.565 126.889 191.111 126.334 191.111 125.646V88.0233C191.111 87.3348 191.565 86.7795 192.127 86.7795H197.448C198.011 86.7795 198.465 87.3348 198.465 88.0233V125.646C198.465 126.334 198.011 126.889 197.448 126.889Z" fill="white" stroke="#FFCF2D" stroke-width="5" stroke-miterlimit="10"/>
<path d="M214.563 126.079H208.452C208.007 126.079 207.626 125.69 207.544 125.157L202.06 90.3108C201.951 89.6112 202.387 88.9672 202.968 88.9672H209.079C209.524 88.9672 209.905 89.3558 209.987 89.8888L215.471 124.735C215.579 125.435 215.144 126.079 214.563 126.079Z" stroke="#66B0F0" stroke-width="6" stroke-miterlimit="10"/>
<path d="M189.894 126.889H161.113C160.441 126.889 159.896 126.223 159.896 125.401V118.194C159.896 117.373 160.441 116.706 161.113 116.706H189.894C190.566 116.706 191.111 117.373 191.111 118.194V125.401C191.111 126.223 190.566 126.889 189.894 126.889Z" fill="#FE5244"/>
<path d="M82.1135 3.36206V26.3264C82.1135 30.8237 79.1264 34.4771 75.4493 34.4771H54.6304C58.3075 34.4771 61.2946 30.8348 61.2946 26.3264V3.36206H82.1135Z" fill="white" stroke="#FFCF2D" stroke-width="5" stroke-miterlimit="10"/>
<path d="M72.4985 1.14087H70.8188V6.038H72.4985V1.14087Z" fill="#FE5244"/>
<path d="M76.0576 12.0901C75.8215 12.0901 75.5855 11.9791 75.3948 11.7681L74.6957 11.013C74.4778 10.7798 74.1873 10.7798 73.9694 11.013L73.3066 11.7348C72.9162 12.1568 72.3714 12.1568 71.9719 11.7348L71.3636 11.0796C71.1457 10.8464 70.8552 10.8464 70.6373 11.0796L70.0743 11.6904C69.6839 12.1123 69.1392 12.1123 68.7397 11.6904L68.2766 11.1907C68.0587 10.9575 67.7682 10.9575 67.5503 11.1907L67.0509 11.7348C66.6605 12.1568 66.1158 12.1568 65.7163 11.7348L65.2532 11.2351C65.0353 11.0019 64.7448 11.0019 64.5269 11.2351C64.4361 11.335 64.2908 11.3239 64.2091 11.2129C64.1274 11.1018 64.1365 10.9241 64.2273 10.8242C64.6177 10.4022 65.1624 10.4022 65.5619 10.8242L66.025 11.3239C66.2429 11.5571 66.5334 11.5571 66.7513 11.3239L67.2507 10.7798C67.6411 10.3578 68.1858 10.3578 68.5853 10.7798L69.0484 11.2795C69.2663 11.5127 69.5568 11.5127 69.7747 11.2795L70.3376 10.6687C70.728 10.2468 71.2728 10.2468 71.6723 10.6687L72.2806 11.3239C72.4985 11.5571 72.7891 11.5571 73.007 11.3239L73.6698 10.6021C74.0602 10.1801 74.6049 10.1801 75.0044 10.6021L75.7035 11.3572C75.9214 11.5904 76.212 11.5904 76.4299 11.3572L77.1562 10.5688C77.5466 10.1468 78.0914 10.1468 78.4909 10.5688C78.5817 10.6687 78.5907 10.8464 78.509 10.9575C78.4273 11.0685 78.282 11.0796 78.1913 10.9797C77.9733 10.7465 77.6828 10.7465 77.4649 10.9797L76.7386 11.7681C76.5207 11.9791 76.2937 12.0901 76.0576 12.0901Z" fill="#FFCF2D"/>
<path d="M76.0576 16.6542C75.8215 16.6542 75.5855 16.5432 75.3948 16.3322L74.6957 15.5771C74.4778 15.3439 74.1873 15.3439 73.9694 15.5771L73.3066 16.2989C72.9162 16.7208 72.3714 16.7208 71.9719 16.2989L71.3636 15.6437C71.1457 15.4105 70.8552 15.4105 70.6373 15.6437L70.0743 16.2545C69.6839 16.6764 69.1392 16.6764 68.7397 16.2545L68.2766 15.7547C68.0587 15.5216 67.7682 15.5216 67.5503 15.7547L67.0509 16.2989C66.6605 16.7208 66.1158 16.7208 65.7163 16.2989L65.2532 15.7992C65.0353 15.566 64.7448 15.566 64.5269 15.7992C64.4361 15.8991 64.2908 15.888 64.2091 15.777C64.1274 15.6659 64.1365 15.4882 64.2273 15.3883C64.6177 14.9663 65.1624 14.9663 65.5619 15.3883L66.025 15.888C66.2429 16.1212 66.5334 16.1212 66.7513 15.888L67.2507 15.3439C67.6411 14.9219 68.1858 14.9219 68.5853 15.3439L69.0484 15.8436C69.2663 16.0768 69.5568 16.0768 69.7747 15.8436L70.3376 15.2328C70.728 14.8109 71.2728 14.8109 71.6723 15.2328L72.2806 15.888C72.4985 16.1212 72.7891 16.1212 73.007 15.888L73.6698 15.1662C74.0602 14.7442 74.6049 14.7442 75.0044 15.1662L75.7035 15.9213C75.9214 16.1545 76.212 16.1545 76.4299 15.9213L77.1562 15.1329C77.5466 14.7109 78.0914 14.7109 78.4909 15.1329C78.5817 15.2328 78.5907 15.4105 78.509 15.5215C78.4273 15.6326 78.282 15.6437 78.1913 15.5438C77.9733 15.3106 77.6828 15.3106 77.4649 15.5438L76.7386 16.3322C76.5207 16.5543 76.2937 16.6542 76.0576 16.6542Z" fill="#FFCF2D"/>
<path d="M76.0576 21.2182C75.8215 21.2182 75.5855 21.1071 75.3948 20.8961L74.6957 20.141C74.4778 19.9078 74.1873 19.9078 73.9694 20.141L73.3066 20.8628C72.9162 21.2848 72.3714 21.2848 71.9719 20.8628L71.3636 20.2077C71.1457 19.9745 70.8552 19.9745 70.6373 20.2077L70.0743 20.8184C69.6839 21.2404 69.1392 21.2404 68.7397 20.8184L68.2766 20.3187C68.0587 20.0855 67.7682 20.0855 67.5503 20.3187L67.0509 20.8628C66.6605 21.2848 66.1158 21.2848 65.7163 20.8628L65.2532 20.3631C65.0353 20.1299 64.7448 20.1299 64.5269 20.3631C64.4361 20.4631 64.2908 20.452 64.2091 20.3409C64.1274 20.2299 64.1365 20.0522 64.2273 19.9523C64.6177 19.5303 65.1624 19.5303 65.5619 19.9523L66.025 20.452C66.2429 20.6852 66.5334 20.6852 66.7513 20.452L67.2507 19.9078C67.6411 19.4859 68.1858 19.4859 68.5853 19.9078L69.0484 20.4075C69.2663 20.6407 69.5568 20.6407 69.7747 20.4075L70.3376 19.7968C70.728 19.3748 71.2728 19.3748 71.6723 19.7968L72.2806 20.452C72.4985 20.6852 72.7891 20.6852 73.007 20.452L73.6698 19.7302C74.0602 19.3082 74.6049 19.3082 75.0044 19.7302L75.7035 20.4853C75.9214 20.7185 76.212 20.7185 76.4299 20.4853L77.1562 19.6969C77.5466 19.2749 78.0914 19.2749 78.4909 19.6969C78.5817 19.7968 78.5907 19.9745 78.509 20.0855C78.4273 20.1966 78.282 20.2077 78.1913 20.1077C77.9733 19.8745 77.6828 19.8745 77.4649 20.1077L76.7386 20.8961C76.5207 21.1182 76.2937 21.2182 76.0576 21.2182Z" fill="#FFCF2D"/>
<path d="M76.0576 25.7933C75.8215 25.7933 75.5855 25.6822 75.3948 25.4712L74.6957 24.7161C74.4778 24.4829 74.1873 24.4829 73.9694 24.7161L73.3066 25.4379C72.9162 25.8599 72.3714 25.8599 71.9719 25.4379L71.3636 24.7827C71.1457 24.5495 70.8552 24.5495 70.6373 24.7827L70.0743 25.3935C69.6839 25.8155 69.1392 25.8155 68.7397 25.3935L68.2766 24.8938C68.0587 24.6606 67.7682 24.6606 67.5503 24.8938L67.0509 25.4379C66.6605 25.8599 66.1158 25.8599 65.7163 25.4379L65.2532 24.9382C65.0353 24.705 64.7448 24.705 64.5269 24.9382C64.4361 25.0381 64.2908 25.027 64.2091 24.916C64.1274 24.805 64.1365 24.6273 64.2273 24.5273C64.6177 24.1054 65.1624 24.1054 65.5619 24.5273L66.025 25.027C66.2429 25.2602 66.5334 25.2602 66.7513 25.027L67.2507 24.4829C67.6411 24.0609 68.1858 24.0609 68.5853 24.4829L69.0484 24.9826C69.2663 25.2158 69.5568 25.2158 69.7747 24.9826L70.3376 24.3719C70.728 23.9499 71.2728 23.9499 71.6723 24.3719L72.2806 25.027C72.4985 25.2602 72.7891 25.2602 73.007 25.027L73.6698 24.3052C74.0602 23.8833 74.6049 23.8833 75.0044 24.3052L75.7035 25.0604C75.9214 25.2936 76.212 25.2936 76.4299 25.0604L77.1562 24.2719C77.5466 23.85 78.0914 23.85 78.4909 24.2719C78.5817 24.3719 78.5907 24.5495 78.509 24.6606C78.4273 24.7716 78.282 24.7827 78.1913 24.6828C77.9733 24.4496 77.6828 24.4496 77.4649 24.6828L76.7386 25.4712C76.5207 25.6822 76.2937 25.7933 76.0576 25.7933Z" fill="#FFCF2D"/>
<path d="M103.55 3.36194H88.9867V21.1737H103.55V3.36194Z" fill="#66B0F0"/>
<path d="M92.1878 2.60019L91.132 1.00232L87.2832 4.80661L88.3391 6.40448L92.1878 2.60019Z" fill="#FFCF2D"/>
<path d="M104.305 6.40219L105.361 4.80432L101.512 1.00003L100.457 2.59791L104.305 6.40219Z" fill="#FFCF2D"/>
<path d="M100.472 7.58167H91.6378V8.24794H100.472V7.58167Z" fill="white"/>
<path d="M100.472 10.4578H91.6378V11.124H100.472V10.4578Z" fill="white"/>
<path d="M100.472 13.345H91.6378V14.0112H100.472V13.345Z" fill="white"/>
<path d="M100.472 16.2208H91.6378V16.8871H100.472V16.2208Z" fill="white"/>
<path d="M159.215 126.89H125.268L131.841 109.122L132.803 106.513H151.679L154.331 113.675L159.215 126.89Z" fill="white" stroke="#66B0F0" stroke-width="6" stroke-miterlimit="10"/>
<path d="M154.331 113.675L131.841 109.122L132.803 106.512H151.679L154.331 113.675Z" fill="#66B0F0"/>
<path d="M182.249 106.513H102.342C99.4095 106.513 97.0398 103.603 97.0398 100.027V36.2315C97.0398 32.6448 99.4186 29.7465 102.342 29.7465H182.249C185.182 29.7465 187.552 32.6559 187.552 36.2315V100.016C187.552 103.603 185.173 106.513 182.249 106.513Z" fill="white" stroke="#66B0F0" stroke-width="6" stroke-miterlimit="10"/>
<path d="M158.307 102.004H126.275C124.714 102.004 123.452 100.461 123.452 98.5507V93.809C123.452 91.899 124.714 90.3555 126.275 90.3555H158.307C159.869 90.3555 161.131 91.899 161.131 93.809V98.5507C161.131 100.461 159.86 102.004 158.307 102.004Z" fill="#66B0F0"/>
<path d="M149.9 98.8392H147.739C147.203 98.8392 146.767 98.3062 146.767 97.651V95.5855C146.767 94.9304 147.203 94.3973 147.739 94.3973H149.9C150.435 94.3973 150.871 94.9304 150.871 95.5855V97.651C150.871 98.3062 150.435 98.8392 149.9 98.8392Z" fill="white"/>
<path d="M152.651 98.4951L151.852 97.8733C151.634 97.7067 151.498 97.4069 151.498 97.0848V96.152C151.498 95.83 151.634 95.5302 151.852 95.3636L152.651 94.7418C152.841 94.5974 153.087 94.764 153.087 95.0305V98.1953C153.096 98.4729 152.841 98.6395 152.651 98.4951Z" fill="white"/>
<path d="M141.71 97.7956H141.51C140.721 97.7956 140.076 97.0072 140.076 96.0411V95.0084C140.076 94.9195 140.139 94.8418 140.212 94.8418H142.999C143.072 94.8418 143.136 94.9195 143.136 95.0084V96.0411C143.145 97.0072 142.5 97.7956 141.71 97.7956ZM140.348 95.1749V96.0411C140.348 96.8184 140.866 97.4625 141.51 97.4625H141.71C142.346 97.4625 142.872 96.8295 142.872 96.0411V95.1749H140.348Z" fill="white"/>
<path d="M141.61 99.7164C141.538 99.7164 141.474 99.6386 141.474 99.5498V98.295C141.474 98.2062 141.538 98.1284 141.61 98.1284C141.683 98.1284 141.747 98.2062 141.747 98.295V99.5498C141.747 99.6386 141.683 99.7164 141.61 99.7164Z" fill="white"/>
<path d="M142.328 99.7164H140.902C140.83 99.7164 140.766 99.6387 140.766 99.5499C140.766 99.461 140.83 99.3833 140.902 99.3833H142.328C142.4 99.3833 142.464 99.461 142.464 99.5499C142.464 99.6387 142.4 99.7164 142.328 99.7164Z" fill="white"/>
<path d="M141.674 97.018H141.547C141.093 97.018 140.73 96.5738 140.73 96.0186V93.9976C140.73 93.4424 141.093 92.9982 141.547 92.9982H141.674C142.128 92.9982 142.491 93.4424 142.491 93.9976V96.0186C142.491 96.5738 142.128 97.018 141.674 97.018Z" fill="white"/>
<path d="M133.321 95.7634L133.312 95.7745C133.139 96.0299 133.194 96.4185 133.421 96.6517L134.256 97.4735C134.483 97.6956 134.81 97.6734 134.983 97.4179L134.992 97.4068C135.164 97.1514 135.491 97.1403 135.709 97.3735L136.462 98.2064C136.699 98.4729 136.699 98.9171 136.462 99.1169C135.673 99.7943 134.647 99.55 133.802 98.7172L132.531 97.4624C131.687 96.6184 131.278 95.4413 131.65 94.3531C131.768 94.0199 132.123 93.9311 132.377 94.1643L133.203 94.8972C133.43 95.1193 133.484 95.508 133.321 95.7634Z" fill="white"/>
<path d="M135.536 96.4074C135.464 96.4074 135.409 96.3408 135.4 96.2519C135.355 95.4524 134.792 94.8416 134.138 94.8972C134.066 94.8972 134.002 94.8305 133.993 94.7417C133.984 94.6529 134.047 94.5751 134.12 94.564C134.928 94.4974 135.618 95.2525 135.673 96.2297C135.682 96.3186 135.627 96.3963 135.536 96.4074C135.545 96.4074 135.545 96.4074 135.536 96.4074Z" fill="white"/>
<path d="M136.39 96.2409C136.317 96.2409 136.263 96.1742 136.253 96.0854C136.217 95.4191 135.972 94.7973 135.554 94.3531C135.137 93.9089 134.61 93.6868 134.065 93.7312C133.993 93.7312 133.929 93.6646 133.92 93.5758C133.911 93.4869 133.975 93.4092 134.047 93.3981C134.665 93.3537 135.264 93.598 135.736 94.0977C136.208 94.5974 136.48 95.297 136.526 96.0521C136.535 96.1631 136.471 96.2409 136.39 96.2409C136.399 96.2409 136.399 96.2409 136.39 96.2409Z" fill="white"/>
<path d="M167.096 35.7541C167.617 35.7541 168.04 35.237 168.04 34.5992C168.04 33.9614 167.617 33.4443 167.096 33.4443C166.574 33.4443 166.152 33.9614 166.152 34.5992C166.152 35.237 166.574 35.7541 167.096 35.7541Z" stroke="#FFCF2D" stroke-width="5" stroke-miterlimit="10"/>
<path d="M170.955 35.754C171.476 35.754 171.899 35.2369 171.899 34.5991C171.899 33.9613 171.476 33.4442 170.955 33.4442C170.433 33.4442 170.01 33.9613 170.01 34.5991C170.01 35.2369 170.433 35.754 170.955 35.754Z" stroke="#FFCF2D" stroke-width="5" stroke-miterlimit="10"/>
<path d="M174.823 35.754C175.344 35.754 175.767 35.2369 175.767 34.5991C175.767 33.9613 175.344 33.4442 174.823 33.4442C174.301 33.4442 173.878 33.9613 173.878 34.5991C173.878 35.2369 174.301 35.754 174.823 35.754Z" stroke="#FFCF2D" stroke-width="5" stroke-miterlimit="10"/>
<path d="M138.932 87.5126H110.477C109.606 87.5126 108.906 86.6464 108.906 85.5915V66.958C108.906 65.8919 109.615 65.0369 110.477 65.0369H138.932C139.803 65.0369 140.503 65.903 140.503 66.958V85.5915C140.503 86.6464 139.803 87.5126 138.932 87.5126Z" stroke="#66B0F0" stroke-width="6" stroke-miterlimit="10"/>
<path d="M174.822 87.5126H146.368C145.496 87.5126 144.797 86.6464 144.797 85.5915V66.958C144.797 65.8919 145.505 65.0369 146.368 65.0369H174.822C175.694 65.0369 176.393 65.903 176.393 66.958V85.5915C176.393 86.6464 175.694 87.5126 174.822 87.5126Z" fill="#3FB1B5"/>
<path d="M172.646 60H111.897C110.036 60 108.543 59.2128 108.543 58.2541V41.32C108.543 40.3512 110.055 39.5741 111.897 39.5741H172.646C174.507 39.5741 176 40.3613 176 41.32V58.2541C176.019 59.2128 174.507 60 172.646 60Z" fill="#FFCF2D"/>
<path d="M172.009 261.111C171.764 261.022 171.628 260.977 171.628 260.977L168.659 272.87L157.482 269.284C157.391 269.184 157.346 269.128 157.346 269.128C157.346 269.128 112.086 225.743 109.707 204.921C107.337 184.1 126.295 164.345 126.295 164.345C126.295 164.345 166.725 257.813 171.728 260.866C171.828 260.933 171.927 261.011 172.009 261.111Z" fill="#A0505A"/>
<path d="M135.864 186.21C134.447 195.482 129.472 214.26 124.324 232.427C116.697 222.378 110.542 212.239 109.706 204.91C108.199 191.718 115.272 178.937 120.647 171.363C122.617 169.431 124.742 167.654 127.039 166.066C128.446 169.298 131.705 176.782 135.864 186.21Z" fill="#73325A"/>
<path d="M197.413 269.117L180.788 282.165L175.967 281.276L171.527 284.719L172.962 288.317L165.653 294.058C155.966 283.275 157.336 269.25 157.336 269.25L168.649 272.881L171.618 260.988C171.618 260.988 181.778 264.62 189.278 264.309C196.795 263.998 197.413 269.117 197.413 269.117Z" fill="white" stroke="#FE5244" stroke-width="6" stroke-miterlimit="10"/>
<path d="M178.519 262.576C178.519 262.576 177.82 253.537 176.067 254.104C174.315 254.681 176.512 263.698 178.482 262.71C180.453 261.721 182.423 255.314 182.423 255.314" stroke="#FE5244" stroke-width="6" stroke-miterlimit="10"/>
<path d="M159.071 282.154L170.211 282.365L175.74 278.323L180.988 279.355L196.723 267.34" stroke="#FE5244" stroke-width="6" stroke-miterlimit="10"/>
<path d="M176.212 262.066L175.177 267.962" stroke="#FE5244" stroke-width="6" stroke-miterlimit="10"/>
<path d="M178.464 262.732L177.429 268.628" stroke="#FE5244" stroke-width="6" stroke-miterlimit="10"/>
<path d="M180.816 263.209L179.781 269.106" stroke="#FE5244" stroke-width="6" stroke-miterlimit="10"/>
<path d="M122.454 159.803C122.454 159.803 129.109 163.601 129.109 177.526C129.109 190.985 103.705 273.403 103.705 273.403L95.8875 281.51L87.9521 270.883C91.829 266.374 80.6978 184.866 122.454 159.803Z" fill="#A0505A"/>
<path d="M121.745 297.3L101.989 297.323L98.3207 293.392L93.0638 293.358L92.6825 297.334L84.9378 297.345C80.725 281.31 87.9885 270.871 87.9885 270.871L95.8693 281.487L103.741 273.392C103.741 273.392 110.569 283.186 117.015 287.873C123.48 292.57 121.745 297.3 121.745 297.3Z" fill="white" stroke="#FE5244" stroke-width="6" stroke-miterlimit="10"/>
<path d="M108.245 279.1C108.245 279.1 115.998 272.981 113.792 270.638C111.586 268.295 107.146 278.467 108.354 279.278C109.561 280.088 117.923 277.012 117.923 277.012" stroke="#FE5244" stroke-width="6" stroke-miterlimit="10"/>
<path d="M83.8939 283.164L93.1639 290.316H99.6012L103.678 294.502H121.9" stroke="#FE5244" stroke-width="6" stroke-miterlimit="10"/>
<path d="M106.519 276.79L103.033 281.054" stroke="#FE5244" stroke-width="6" stroke-miterlimit="10"/>
<path d="M108.117 278.845L104.631 283.109" stroke="#FE5244" stroke-width="6" stroke-miterlimit="10"/>
<path d="M109.879 280.799L106.392 285.063" stroke="#FE5244" stroke-width="6" stroke-miterlimit="10"/>
<path d="M122.454 159.804C106.755 169.22 98.5295 186.632 94.1805 204.921H46.5413C34.3477 204.921 25.2593 191.163 27.8288 176.583L31.3243 156.728H114.155C117.224 156.728 120.075 157.86 122.454 159.804Z" fill="#FE5244"/>
<path d="M87.0804 178.837L104.231 178.792L101.689 183.889L87.0804 178.837Z" fill="#A0505A"/>
<path d="M122.544 159.692C114.736 164.378 108.78 171.041 104.222 178.803H60.7596C52.9242 178.803 47.0771 169.997 48.6751 160.614L49.3378 156.727" stroke="white" stroke-width="6" stroke-miterlimit="10" stroke-linecap="round"/>
<path d="M94.244 204.91C95.9782 197.615 98.3207 190.452 101.508 183.889L87.0804 178.826" stroke="white" stroke-width="6" stroke-miterlimit="10" stroke-linecap="round"/>
<path d="M20.1931 103.392L28.9183 145.256H12.6391C3.16026 145.256 -2.94105 132.941 1.45335 122.67L13.9556 93.4312C17.4965 85.1583 24.4967 79.9724 32.1324 79.9724H35.0832C25.0596 79.9613 17.7144 91.5101 20.1931 103.392Z" fill="#3FB1B5"/>
<path d="M120.665 92.5316C125.795 92.5316 130.062 91.6987 131.097 90.5328L115.181 132.73C112.303 140.37 106.047 145.256 99.1742 145.256C97.1586 145.256 95.1793 144.834 93.3089 144.024C91.4386 143.213 89.6772 142.025 88.1065 140.47L78.0738 130.565C78.0738 130.565 77.0751 137.749 69.9478 139.582V156.705H31.3153L20.1931 103.381C17.7144 91.4988 25.0596 79.939 35.0832 79.939H62.1305C64.5184 79.939 66.8699 80.3054 69.1398 81.0161C75.35 82.9483 80.9247 87.4124 84.8652 93.8086L98.0847 115.263L109.96 89.8776C109.96 89.8998 109.951 89.9331 109.951 89.9553C109.96 91.4322 114.763 92.5316 120.665 92.5316Z" fill="#3FB1B5"/>
<path d="M20.1023 103.392L28.6459 145.59" stroke="white" stroke-width="6" stroke-miterlimit="10" stroke-linecap="round"/>
<path d="M78.1645 131.131L70.5742 121.248" stroke="white" stroke-width="6" stroke-miterlimit="10" stroke-linecap="round"/>
<path d="M131.333 89.9109L131.097 90.5328C130.062 91.7099 125.795 92.5316 120.665 92.5316C114.763 92.5316 109.96 91.4323 109.96 89.9776C109.96 89.9554 109.96 89.9221 109.97 89.8998C110.133 88.4785 114.872 87.257 120.674 87.257C126.467 87.257 131.17 88.4785 131.333 89.9109C131.333 89.8998 131.333 89.8998 131.333 89.9109Z" fill="#FE5244"/>
<path d="M136.09 68.5903C136.09 69.2232 135.962 69.8451 135.726 70.3892C135.49 70.9334 135.145 71.4108 134.719 71.7773L134.51 71.955L132.885 82.5599C132.621 84.2811 131.786 85.8024 130.578 86.7463L128.354 88.4786L126.593 89.8556L125.775 92.2431C124.259 92.4318 122.525 92.5429 120.673 92.5429C118.803 92.5429 117.041 92.4318 115.507 92.232V75.7861C115.507 75.0754 115.634 74.3758 115.879 73.7317L118.839 65.9363C118.839 65.9363 122.071 66.9135 120.582 71.7662C119.229 76.1747 122.316 75.042 124.05 74.2536C125.603 73.5429 132.385 69.3232 135.036 67.7796C135.527 67.4909 136.09 67.9351 136.09 68.5903Z" fill="#A0505A"/>
<path d="M133.258 78.5288C132.995 80.25 132.159 81.7603 130.952 82.7041L126.966 85.8134" stroke="#73325A" stroke-width="5" stroke-miterlimit="10" stroke-linecap="round"/>
<path d="M133.912 74.0314C133.648 75.7526 132.813 77.2628 131.606 78.2067L127.62 81.316" stroke="#73325A" stroke-width="5" stroke-miterlimit="10" stroke-linecap="round"/>
<path d="M134.22 72.077L127.81 77.0519" stroke="#73325A" stroke-width="5" stroke-miterlimit="10" stroke-linecap="round"/>
<path d="M128.7 88.2009L128.346 88.4785L126.585 89.8554L125.767 92.2429C124.251 92.4317 122.517 92.5428 120.665 92.5428C118.795 92.5428 117.033 92.4317 115.499 92.2318V87.6123C117.033 87.3902 118.795 87.2681 120.665 87.2681C123.87 87.257 126.739 87.6234 128.7 88.2009Z" fill="#73325A"/>
<path d="M68.2953 80.7626C66.9788 82.928 62.076 88.025 45.5698 88.025C24.3332 88.025 37.925 79.9853 37.925 79.9853L46.9317 61.585L56.5921 68.8363V74.6662C56.5921 77.6089 58.5441 79.9853 60.9411 79.9853H61.5676C63.8192 79.9742 66.1435 80.0963 68.2953 80.7626Z" fill="#A0505A"/>
<path d="M56.583 68.8234V70.3115L37.9159 79.9725L46.9226 61.5721L56.583 68.8234Z" fill="#73325A"/>
<path d="M57.0915 69.5453H59.1435C61.032 69.5453 62.5664 67.6686 62.5664 65.3589V51.3782H50.3184V61.2613C50.3184 65.8364 53.3509 69.5453 57.0915 69.5453Z" fill="#A0505A"/>
<path d="M62.3029 64.5483C60.9864 64.5483 60.4598 63.4379 60.4598 63.4379" stroke="#73325A" stroke-width="5" stroke-miterlimit="10" stroke-linecap="round"/>
<path d="M61.1137 60.0731C61.3543 60.0731 61.5495 59.6108 61.5495 59.0404C61.5495 58.4701 61.3543 58.0077 61.1137 58.0077C60.873 58.0077 60.6779 58.4701 60.6779 59.0404C60.6779 59.6108 60.873 60.0731 61.1137 60.0731Z" fill="#73325A"/>
<path d="M52.6517 52.8328C52.6517 52.8328 62.757 60.2951 66.0437 53.7989C68.9309 48.1023 56.1381 45.1707 51.6711 45.1485C46.8137 45.1262 40.3764 47.758 40.4854 56.4974C40.5762 63.6931 40.8213 74.2203 37.3348 72.388C24.9325 65.8807 13.9102 72.6767 13.8739 85.6247C13.8375 98.5727 26.1219 99.7831 26.4306 96.4406C26.7483 93.1092 18.8039 93.8754 19.8753 102.526C20.9376 111.176 25.677 121.992 36.4995 121.992C49.5738 122.003 57.8995 100.949 49.8098 98.8059C43.6087 97.1624 56.1291 111.798 59.8425 96.5849C63.8374 80.2057 49.4013 74.8421 49.0472 64.948C48.6931 55.0538 52.6517 52.8328 52.6517 52.8328Z" fill="#FFCF2D" stroke="white" stroke-width="5" stroke-miterlimit="10"/>
<path d="M51.9435 58.7738H59.1706" stroke="#FE5244" stroke-width="6" stroke-miterlimit="10"/>
<path d="M61.3952 62.3273C62.5284 62.3273 63.4471 60.8855 63.4471 59.1069C63.4471 57.3284 62.5284 55.8866 61.3952 55.8866C60.2619 55.8866 59.3433 57.3284 59.3433 59.1069C59.3433 60.8855 60.2619 62.3273 61.3952 62.3273Z" stroke="#FE5244" stroke-width="6" stroke-miterlimit="10"/>
<path d="M48.1119 54.8095V45.4595C48.1119 44.0603 49.038 42.9165 50.1911 42.9165H52.4609C53.6049 42.9165 54.5401 44.0492 54.5401 45.4595" stroke="#66B0F0" stroke-width="6" stroke-miterlimit="10"/>
<path d="M50.3002 65.1035H45.933C44.8163 65.1035 43.9083 63.9931 43.9083 62.6272V57.2859C43.9083 55.92 44.8163 54.8096 45.933 54.8096H50.3002C51.4169 54.8096 52.3249 55.92 52.3249 57.2859V62.6272C52.3158 63.9931 51.4169 65.1035 50.3002 65.1035Z" fill="white" stroke="#66B0F0" stroke-width="6" stroke-miterlimit="10"/>
<path d="M49.1653 63.3379H47.0317C46.1147 63.3379 45.3611 62.4273 45.3611 61.2947V58.6851C45.3611 57.5635 46.1056 56.6418 47.0317 56.6418H49.1653C50.0823 56.6418 50.8359 57.5524 50.8359 58.6851V61.2947C50.8359 62.4273 50.0914 63.3379 49.1653 63.3379Z" fill="white" stroke="#66B0F0" stroke-width="6" stroke-miterlimit="10"/>
<path d="M50.0098 56.9083L46.2146 63.0825" stroke="#66B0F0" stroke-width="6" stroke-miterlimit="10"/>
<path d="M48.7566 56.6971L45.4698 62.0273" stroke="#66B0F0" stroke-width="6" stroke-miterlimit="10"/>
<path d="M50.7451 58.0077L47.4584 63.3379" stroke="#66B0F0" stroke-width="6" stroke-miterlimit="10"/>
<path d="M50.8358 59.9952L48.7748 63.3377" stroke="#66B0F0" stroke-width="6" stroke-miterlimit="10"/>
<path d="M47.4221 56.6976L45.3701 60.0179" stroke="#66B0F0" stroke-width="6" stroke-miterlimit="10"/>
<path d="M44.8792 211.184V217.303C44.8792 220.257 42.918 222.655 40.5029 222.655H29.2809" stroke="#66B0F0" stroke-width="6" stroke-miterlimit="10"/>
<path d="M49.0648 211.251V267.385" stroke="#66B0F0" stroke-width="6" stroke-miterlimit="10"/>
<path d="M28.7452 285.385C28.7452 275.446 36.8168 267.385 46.7677 267.385H51.2892C61.2402 267.385 69.3117 275.446 69.3117 285.385" stroke="#66B0F0" stroke-width="6" stroke-miterlimit="10"/>
<path d="M92.7272 212.106H26.8112C23.5064 212.106 20.837 208.83 20.837 204.799H94.2888L92.7272 212.106Z" fill="#FFCF2D"/>
<path d="M28.3458 297.289C31.0335 297.289 33.2123 294.625 33.2123 291.337C33.2123 288.05 31.0335 285.385 28.3458 285.385C25.6581 285.385 23.4792 288.05 23.4792 291.337C23.4792 294.625 25.6581 297.289 28.3458 297.289Z" fill="#FFCF2D"/>
<path d="M25.8671 224.177H35.6364C36.4354 224.177 37.08 223.388 37.08 222.411V222.278C37.08 221.301 36.4354 220.512 35.6364 220.512H25.8671C25.0681 220.512 24.4235 221.301 24.4235 222.278V222.411C24.4235 223.388 25.0681 224.177 25.8671 224.177Z" fill="#FFCF2D"/>
<path d="M20.8372 205.021H67.6048L51.9611 151.408C50.8716 147.688 47.9934 145.201 44.7612 145.201H10.3778C6.96395 145.201 4.58516 149.332 5.72916 153.263L20.8372 205.021Z" stroke="#FFCF2D" stroke-width="6" stroke-miterlimit="10"/>
<path d="M23.1524 205.021H63.8096L48.6925 153.185C47.6393 149.587 44.861 147.189 41.7378 147.189H6.92761" stroke="#FFCF2D" stroke-width="6" stroke-miterlimit="10"/>
<path d="M69.2299 297.289C71.9176 297.289 74.0964 294.625 74.0964 291.337C74.0964 288.05 71.9176 285.385 69.2299 285.385C66.5422 285.385 64.3634 288.05 64.3634 291.337C64.3634 294.625 66.5422 297.289 69.2299 297.289Z" fill="#FFCF2D"/>
</svg>

