<svg width="392" height="291" viewBox="0 0 392 291" fill="none" xmlns="http://www.w3.org/2000/svg">
<path d="M262.77 3H129.885V136.481H262.77V3Z" stroke="#66B0F0" stroke-width="6" stroke-miterlimit="10"/>
<path d="M196.328 3H129.885V136.481H196.328V3Z" stroke="#66B0F0" stroke-width="6" stroke-miterlimit="10"/>
<path d="M262.77 3H196.328V136.481H262.77V3Z" stroke="#66B0F0" stroke-width="6" stroke-miterlimit="10"/>
<path d="M250.509 15.9124H209.993V58.9749H250.509V15.9124Z" stroke="#66B0F0" stroke-width="6" stroke-miterlimit="10"/>
<path d="M236.458 36.6217L231.747 40.4067" stroke="#66B0F0" stroke-width="6" stroke-miterlimit="10" stroke-linecap="round"/>
<path d="M225.184 45.6841L209.993 57.8935V48.9176L250.499 16.9938V25.3424L239.581 34.1128" stroke="#66B0F0" stroke-width="6" stroke-miterlimit="10" stroke-linecap="round"/>
<path d="M129.885 3H196.328V13.3277L129.885 3Z" fill="#66B0F0"/>
<path d="M212.923 88.3141C212.465 88.3141 212.038 88.0545 211.804 87.6219L202.087 69.562C201.598 68.6536 202.219 67.5073 203.206 67.5073C203.664 67.5073 204.091 67.7669 204.325 68.1994L214.042 86.2593C214.531 87.1785 213.91 88.3141 212.923 88.3141Z" stroke="#66B0F0" stroke-width="6" stroke-miterlimit="10"/>
<path d="M182.5 15.9124H141.984V58.9749H182.5V15.9124Z" stroke="#66B0F0" stroke-width="6" stroke-miterlimit="10"/>
<path d="M141.984 48.9176L182.49 16.9938" stroke="#66B0F0" stroke-width="6" stroke-miterlimit="10" stroke-linecap="round"/>
<path d="M179.56 88.3141C180.018 88.3141 180.445 88.0545 180.679 87.6219L190.396 69.562C190.884 68.6536 190.264 67.5073 189.277 67.5073C188.819 67.5073 188.392 67.7669 188.158 68.1994L178.441 86.2593C177.952 87.1785 178.573 88.3141 179.56 88.3141Z" stroke="#66B0F0" stroke-width="6" stroke-miterlimit="10"/>
<path d="M366.697 266.415L24.4021 286.962V257.731H366.697V266.415Z" fill="#D0F0E4"/>
<path d="M351.098 235.075L42.1676 255.622V226.391H351.098V235.075Z" fill="#D0F0E4"/>
<path d="M331.206 203.843L58.8442 224.391V195.159H331.206V203.843Z" fill="#D0F0E4"/>
<path d="M315.527 172.828L77.4236 193.375V164.144H315.527V172.828Z" fill="#D0F0E4"/>
<path d="M24.4021 257.731H366.697V285.881" stroke="#66B0F0" stroke-width="6" stroke-miterlimit="10"/>
<path d="M42.1676 226.283H351.098V255.633" stroke="#66B0F0" stroke-width="6" stroke-miterlimit="10"/>
<path d="M58.8442 195.051H331.206V224.391" stroke="#66B0F0" stroke-width="6" stroke-miterlimit="10"/>
<path d="M77.5253 164.036H315.527V193.375" stroke="#66B0F0" stroke-width="6" stroke-miterlimit="10"/>
<path d="M294.16 143.521L98.8013 161.527V135.908H294.16V143.521Z" fill="#D0F0E4"/>
<path d="M98.8826 135.811H294.16V161.527" stroke="#66B0F0" stroke-width="6" stroke-miterlimit="10"/>
<path d="M77.4441 194.586V127.083" stroke="#66B0F0" stroke-width="6" stroke-miterlimit="10"/>
<path d="M130.018 81.2848L10.5135 185.329C6.33161 189.774 3.9812 195.798 3.9812 202.081C3.9812 215.166 13.9628 226.316 26.2744 226.316" stroke="#66B0F0" stroke-width="6" stroke-miterlimit="10"/>
<path d="M41.8623 255.633V157.969" stroke="#66B0F0" stroke-width="6" stroke-miterlimit="10"/>
<path d="M315.527 194.802V127.083" stroke="#66B0F0" stroke-width="6" stroke-miterlimit="10"/>
<path d="M262.953 81.2845L382.468 185.329C386.65 189.774 389 195.797 389 202.08C389 215.166 379.018 226.315 366.707 226.315" stroke="#66B0F0" stroke-width="6" stroke-miterlimit="10"/>
<path d="M351.119 255.633V157.969" stroke="#66B0F0" stroke-width="6" stroke-miterlimit="10"/>
<path d="M334.89 287.557C334.89 287.557 348.209 262.154 340.12 262.014C336.345 261.949 332.479 275.694 333.944 287.557H334.89Z" fill="#3FB1B5"/>
<path d="M334.31 287.417C334.31 287.417 339.255 263.636 351.2 267.475C363.146 271.314 342.755 287.417 342.755 287.417" stroke="#FFCF2D" stroke-width="6" stroke-miterlimit="10" stroke-linecap="round"/>
<path d="M318.325 287.827C314.184 287.416 311.844 279.544 316.748 276.916C323.799 273.141 326.007 281.025 324.613 281.285C323.219 281.555 321.255 271.584 327.34 271.855C333.425 272.125 333.648 287.416 333.648 287.416" stroke="#FFCF2D" stroke-width="6" stroke-miterlimit="10" stroke-linecap="round"/>
<path d="M339.316 287.417C339.316 287.417 345.675 271 351.872 267.724" stroke="#FFCF2D" stroke-width="6" stroke-miterlimit="10" stroke-linecap="round"/>
<path d="M332.539 278.895C332.539 278.895 331.044 270.081 330.983 264.285" stroke="#FFCF2D" stroke-width="6" stroke-miterlimit="10"/>
<path d="M334.351 268.21C334.056 268.989 331.776 270.925 331.776 270.925C331.776 270.925 331.41 267.843 331.705 267.064C332 266.285 332.835 265.918 333.557 266.231C334.29 266.545 334.646 267.432 334.351 268.21Z" stroke="#FFCF2D" stroke-width="6" stroke-miterlimit="10"/>
<path d="M333.588 262.014C333.292 262.793 331.013 264.728 331.013 264.728C331.013 264.728 330.647 261.646 330.942 260.868C331.237 260.089 332.071 259.721 332.794 260.035C333.526 260.359 333.883 261.235 333.588 262.014Z" stroke="#FFCF2D" stroke-width="6" stroke-miterlimit="10"/>
<path d="M328.338 268.892C328.765 269.595 331.349 271.033 331.349 271.033C331.349 271.033 331.156 267.94 330.729 267.237C330.301 266.534 329.416 266.34 328.755 266.794C328.093 267.259 327.91 268.189 328.338 268.892Z" stroke="#FFCF2D" stroke-width="6" stroke-miterlimit="10"/>
<path d="M38.7591 288C38.7591 288 30.5785 280.149 30.7413 274.515C30.9244 268.069 36.7241 271.184 37.0294 268.859C37.3448 266.544 30.9041 250.712 39.8682 250.831C48.8323 250.95 44.6606 266.133 47.0924 267.539C49.5242 268.934 53.5535 267.269 52.4647 273.412C51.376 279.565 42.3203 287.924 42.3203 287.924L38.7591 288Z" fill="#3FB1B5"/>
<path d="M14.197 287.806C8.89583 287.806 4.81569 277.511 12.9862 274.786C21.1566 272.06 22.052 280.269 20.2714 280.582C18.4908 280.896 17.6056 264.815 32.3083 266.999C48.3542 269.379 38.5455 287.806 38.5455 287.806C38.5455 287.806 48.0082 270.893 39.3087 251.081" stroke="#FFCF2D" stroke-width="6" stroke-miterlimit="10" stroke-linecap="round"/>
<path d="M49.6564 287.806C49.6564 287.806 57.9591 269.335 65.9261 275.218C73.893 281.101 55.1915 287.806 55.1915 287.806" stroke="#FFCF2D" stroke-width="6" stroke-miterlimit="10" stroke-linecap="round"/>
<path d="M52.6479 287.644C52.6479 287.644 60.7167 276.18 66.0381 275.337" stroke="#FFCF2D" stroke-width="6" stroke-miterlimit="10" stroke-linecap="round"/>
<path d="M42.4629 287.697C42.4629 287.697 46.8279 276.894 50.6944 270.492" stroke="#FFCF2D" stroke-width="6" stroke-miterlimit="10" stroke-linecap="round"/>
<path d="M51.7222 277.37C50.8675 277.997 47.0519 278.375 47.0519 278.375C47.0519 278.375 48.7511 274.72 49.5956 274.093C50.4503 273.466 51.6102 273.693 52.2004 274.601C52.7905 275.51 52.5769 276.753 51.7222 277.37Z" stroke="#FFCF2D" stroke-width="6" stroke-miterlimit="10"/>
<path d="M55.1002 269.994C54.2455 270.622 50.4299 271 50.4299 271C50.4299 271 52.1291 267.345 52.9737 266.718C53.8284 266.09 54.9883 266.317 55.5785 267.226C56.1686 268.134 55.9549 269.378 55.1002 269.994Z" stroke="#FFCF2D" stroke-width="6" stroke-miterlimit="10"/>
<path d="M56.5144 263.733C55.9649 264.663 52.597 266.609 52.597 266.609C52.597 266.609 52.7904 262.543 53.35 261.613C53.8994 260.683 55.0594 260.402 55.9344 260.986C56.8095 261.57 57.0638 262.803 56.5144 263.733Z" stroke="#FFCF2D" stroke-width="6" stroke-miterlimit="10"/>
<path d="M44.6606 273.498C44.6504 274.601 46.5022 278.17 46.5022 278.17C46.5022 278.17 48.3948 274.623 48.4049 273.531C48.4151 272.428 47.5808 271.53 46.5429 271.53C45.5153 271.519 44.6707 272.395 44.6606 273.498Z" stroke="#FFCF2D" stroke-width="6" stroke-miterlimit="10"/>
<path d="M48.4457 266.209C48.4355 267.312 50.2874 270.881 50.2874 270.881C50.2874 270.881 52.1799 267.334 52.1901 266.242C52.2003 265.139 51.3659 264.241 50.3281 264.241C49.2902 264.241 48.4559 265.117 48.4457 266.209Z" stroke="#FFCF2D" stroke-width="6" stroke-miterlimit="10"/>
<path d="M292.603 287.827H378.357" stroke="#66B0F0" stroke-width="6" stroke-miterlimit="10"/>
<path d="M1 287.827H207.897" stroke="#66B0F0" stroke-width="6" stroke-miterlimit="10"/>
<path d="M166.83 119.186H218.28C228.68 119.186 238.397 124.438 244.28 133.218L267.851 168.824C269.795 171.719 268.035 175.665 264.608 175.665H238.371L227.892 161.619C226.657 159.842 223.926 160.623 223.755 162.804L221.641 189.252H165.53L160.803 162.36C160.514 160.259 157.861 159.613 156.667 161.35L147.041 174.062H115.67L140.147 134.282C145.938 124.883 156.01 119.186 166.83 119.186Z" fill="white" stroke="#3FB1B5" stroke-width="6" stroke-miterlimit="10" stroke-linecap="round"/>
<path d="M198.175 132.921L206.514 161.322H185.91L195.063 132.921H198.175Z" fill="#FE5244"/>
<g opacity="0.2">
<g opacity="0.2">
<g opacity="0.2">
<path opacity="0.2" d="M191.531 143.896V161.322H190.979V145.607L191.163 145.028L191.531 143.896Z" fill="white"/>
</g>
<g opacity="0.2">
<path opacity="0.2" d="M197.401 132.99H196.849V161.323H197.401V132.99Z" fill="white"/>
</g>
<g opacity="0.2">
<path opacity="0.2" d="M203.271 150.266V161.322H202.719V148.381L203.271 150.266Z" fill="white"/>
</g>
</g>
<g opacity="0.2">
<g opacity="0.2">
<path opacity="0.2" d="M205.437 157.646H187.093L187.276 157.067H205.267L205.437 157.646Z" fill="white"/>
</g>
<g opacity="0.2">
<path opacity="0.2" d="M203.665 151.626H189.036L189.22 151.047H203.494L203.665 151.626Z" fill="white"/>
</g>
<g opacity="0.2">
<path opacity="0.2" d="M201.905 145.607H190.979L191.163 145.028H201.734L201.905 145.607Z" fill="white"/>
</g>
<g opacity="0.2">
<path opacity="0.2" d="M200.132 139.587H192.923L193.107 139.008H199.961L200.132 139.587Z" fill="white"/>
</g>
<g opacity="0.2">
<path opacity="0.2" d="M198.359 133.569H194.866L195.05 132.99H198.202L198.359 133.569Z" fill="white"/>
</g>
</g>
</g>
<path d="M201.905 132.625L205.266 136.328L216.1 119.185H206.501L201.905 132.625Z" fill="white" stroke="#3FB1B5" stroke-width="6" stroke-miterlimit="10" stroke-linecap="round"/>
<path d="M191.938 132.625L188.563 136.328L176.823 119.185H187.328L191.938 132.625Z" fill="white" stroke="#3FB1B5" stroke-width="6" stroke-miterlimit="10" stroke-linecap="round"/>
<path d="M271.975 178.923C271.975 185.629 267.313 191.985 260.065 193.076L230.348 197.56L223.822 198.543V172.634L225.831 172.149L254.825 165.092C260.419 163.732 266.249 166.035 269.506 170.897C271.2 173.401 271.975 176.189 271.975 178.923Z" fill="#A0505A"/>
<path d="M230.348 197.56L223.821 198.543V172.634L225.83 172.149L230.348 197.56Z" fill="#73325A"/>
<path d="M223.821 205.169H161.354V166.722C161.354 163.732 163.718 161.322 166.62 161.322H218.542C221.457 161.322 223.808 163.746 223.808 166.722V205.169H223.821Z" fill="#FFCF2D"/>
<path d="M196.441 186.316H188.733C187.945 186.316 187.315 185.669 187.315 184.861V181.548C187.315 180.74 187.945 180.094 188.733 180.094H196.441C197.229 180.094 197.86 180.74 197.86 181.548V184.861C197.86 185.669 197.216 186.316 196.441 186.316Z" stroke="white" stroke-width="5" stroke-miterlimit="10"/>
<path d="M183.297 204.752L249.428 194.611C262.297 192.605 273.892 202.826 273.892 216.185C273.892 228.237 264.371 238 252.619 238H183.731L183.297 204.752Z" fill="#0096A0"/>
<path d="M174.355 243.939L134.553 251.817C129.484 252.921 124.389 248.585 124.166 242.983L123.575 228.089C123.273 220.548 130.325 216.009 136.969 219.241L174.355 243.939Z" fill="white" stroke="#FE5244" stroke-width="6" stroke-miterlimit="10"/>
<path d="M137.245 251.278C132.347 252.329 127.396 248.114 127.16 242.66L126.543 228.197C126.227 220.871 133.03 216.508 139.464 219.659" stroke="#FE5244" stroke-width="6" stroke-miterlimit="10"/>
<path d="M136.969 219.228L174.355 243.939L165.832 245.622L136.969 219.228Z" fill="#FE5244"/>
<path d="M151.374 230.055L146.45 240.114L141.578 228.291L135.945 241.569" stroke="#FE5244" stroke-width="6" stroke-miterlimit="10" stroke-linejoin="round"/>
<path d="M135.669 226.446L141.184 240.559L146.581 229.287L150.77 238.687" stroke="#FE5244" stroke-width="6" stroke-miterlimit="10" stroke-linejoin="round"/>
<path d="M205.266 225.476C203.06 223.618 196.678 227.846 191.006 234.916C185.333 241.986 182.523 249.231 184.729 251.09C184.4 250.888 142.944 224.224 117.22 206.031C110.68 201.412 107.227 194.005 107.227 186.504C107.227 181.279 108.907 176.014 112.387 171.61C121.107 160.581 137.258 159.841 146.91 170.021L205.266 225.476Z" fill="#3FB1B5"/>
<path d="M198.976 241.642C204.647 234.571 207.455 227.33 205.248 225.469C203.041 223.608 196.655 227.831 190.984 234.902C185.314 241.972 182.506 249.213 184.712 251.074C186.919 252.936 193.305 248.713 198.976 241.642Z" fill="#FE5244" stroke="white" stroke-width="6" stroke-miterlimit="10"/>
<path d="M223.519 248.747L216.139 261.594C212.396 268.098 203.94 268.219 200.066 261.809L187.644 241.286C188.707 239.482 190.02 237.596 191.53 235.711C194.262 232.304 197.164 229.557 199.685 227.833L219.461 235.549C224.294 237.448 226.29 243.912 223.519 248.747Z" fill="white" stroke="#FE5244" stroke-width="6" stroke-miterlimit="10"/>
<path d="M217.374 234.715C221.943 236.533 223.558 242.606 220.945 247.252L213.986 259.574C210.466 265.822 202.495 265.93 198.832 259.789" stroke="#FE5244" stroke-width="6" stroke-miterlimit="10"/>
<path d="M193.106 241.3L203.165 236.075L200.145 248.504L212.173 240.936" stroke="#FE5244" stroke-width="6" stroke-miterlimit="10" stroke-linejoin="round"/>
<path d="M203.966 253.487L207.091 239.011L196.836 244.195L198.411 234.58" stroke="#FE5244" stroke-width="6" stroke-miterlimit="10" stroke-linejoin="round"/>
<path d="M211.806 121.515C211.753 122.377 211.386 123.144 210.808 123.697C210.23 124.249 209.468 124.585 208.628 124.585H205.726L205.542 127.723C205.384 130.309 202.876 132.948 200.263 132.948H192.923C190.323 132.948 187.801 130.309 187.644 127.723L187.46 124.585H184.518C183.678 124.585 182.903 124.249 182.339 123.697C181.761 123.144 181.393 122.377 181.341 121.502C181.236 119.616 182.746 118.054 184.584 118.054H187.066L186.79 113.274C186.738 112.264 187.512 111.415 188.497 111.415H204.702C205.686 111.415 206.461 112.264 206.409 113.274L206.133 118.054H208.641C210.453 118.068 211.911 119.643 211.806 121.515Z" fill="#A0505A"/>
<path d="M206.12 118.054H208.759C208.759 118.054 211.28 108.668 208.851 106.257C206.422 103.847 191.504 98.2986 186.685 101.759C183.166 104.291 185.083 118.054 185.083 118.054H187.027C187.027 118.054 194.866 112.29 196.1 112.789C197.335 113.287 192.555 115.711 193.513 116.182C197.098 117.946 203.546 111.55 205.03 111.55C206.514 111.55 206.12 118.054 206.12 118.054Z" fill="#73325A"/>
<path d="M202.797 120.384C202.797 120.384 201.077 118.956 198.871 119.885" stroke="#73325A" stroke-width="4" stroke-miterlimit="10" stroke-linecap="round"/>
<path d="M199.279 128.06C199.279 128.06 198.333 130.133 195.47 129.056" stroke="#73325A" stroke-width="4" stroke-miterlimit="10" stroke-linecap="round"/>
<path d="M189.719 119.912C189.719 119.912 193.198 119.118 194.249 121.326C194.892 122.686 194.577 127.44 195.326 127.494C196.074 127.548 197.203 127.494 197.203 127.494" stroke="#73325A" stroke-width="4" stroke-miterlimit="10" stroke-linecap="round"/>
<path d="M200.447 124.047C200.788 124.047 201.064 123.576 201.064 122.996C201.064 122.416 200.788 121.946 200.447 121.946C200.106 121.946 199.83 122.416 199.83 122.996C199.83 123.576 200.106 124.047 200.447 124.047Z" fill="#73325A"/>
<path d="M192.463 124.047C192.804 124.047 193.08 123.576 193.08 122.996C193.08 122.416 192.804 121.946 192.463 121.946C192.122 121.946 191.846 122.416 191.846 122.996C191.846 123.576 192.122 124.047 192.463 124.047Z" fill="#73325A"/>
<path d="M186.422 122.001C186.344 120.681 185.28 119.658 183.993 119.658" stroke="#73325A" stroke-width="4" stroke-miterlimit="10" stroke-linecap="round"/>
<path d="M206.58 122.067C206.658 120.666 207.788 119.576 209.14 119.576" stroke="#73325A" stroke-width="4" stroke-miterlimit="10" stroke-linecap="round"/>
</svg>

