<svg width="298" height="279" viewBox="0 0 298 279" fill="none" xmlns="http://www.w3.org/2000/svg">
<path d="M298 277.534H0L53.4937 233.765H245.325L298 277.534Z" fill="#D0F0E4"/>
<path d="M243.059 277.534L214.747 121.517C214.185 118.41 212.459 116.284 210.509 116.284H38.6699C36.7 116.284 34.968 118.454 34.4194 121.616L7.40234 277.534" stroke="#66B0F0" stroke-width="6" stroke-miterlimit="10"/>
<path d="M85.7432 63.5581H160.904" stroke="#66B0F0" stroke-width="6" stroke-miterlimit="10"/>
<path d="M120.889 81.5337L113.209 103.435H90L99.3264 81.5337H120.889Z" fill="white" stroke="#3FB1B5" stroke-width="5" stroke-miterlimit="10"/>
<path d="M115.8 86.8766C115.8 86.8766 114.791 84.486 112.366 85.1029C110.553 85.5546 108.406 87.6257 107.086 86.5131C105.766 85.4004 104.598 84.0123 102.888 84.6733C101.179 85.3343 99.9146 86.6012 99.9146 86.6012" stroke="#3FB1B5" stroke-width="5" stroke-miterlimit="10"/>
<path d="M115.006 90.2918C115.006 90.2918 113.996 87.9012 111.571 88.5181C109.758 88.9698 107.611 91.0409 106.291 89.9282C104.972 88.8155 103.803 87.4274 102.093 88.0884C100.384 88.7494 99.1196 90.0163 99.1196 90.0163" stroke="#3FB1B5" stroke-width="5" stroke-miterlimit="10"/>
<path d="M129.107 189.158C129.107 192.1 123.215 194.479 115.837 194.479C108.458 194.479 102.741 192.1 102.741 189.158C102.741 186.217 108.458 183.837 115.837 183.837C123.215 183.837 129.107 186.228 129.107 189.158Z" fill="#FE5244"/>
<path d="M125.712 185.578V223.585L124.877 218.099C123.978 212.194 120.218 207.975 115.86 207.975C114.549 207.975 113.26 208.36 112.092 209.087C112.052 209.109 112.012 209.143 111.964 209.165L108.903 193.697L107.202 185.093C109.532 184.311 112.545 183.837 115.837 183.837C119.748 183.837 123.271 184.509 125.712 185.578Z" fill="#A0505A"/>
<path d="M125.712 185.579V192.74C123.271 193.809 119.748 194.481 115.837 194.481C113.3 194.481 110.931 194.194 108.903 193.71L107.202 185.106C109.532 184.324 112.545 183.85 115.837 183.85C119.748 183.839 123.271 184.511 125.712 185.579Z" fill="#73325A"/>
<path d="M125.123 222.473C125.338 222.561 127.358 223.343 129.147 223.343C130.117 223.343 131.015 223.112 131.524 222.407C131.961 221.801 132.065 220.919 131.834 219.807C131.627 218.815 131.23 218.198 130.649 217.978C129.584 217.581 128.105 218.683 126.936 219.84C128.757 216.777 130.554 212.888 129.886 210.343C129.648 209.44 129.107 208.834 128.431 208.724C127.867 208.636 127.342 208.911 127.095 209.429C125.95 211.842 125.012 221.746 124.972 222.164L125.123 222.473ZM127.429 209.738C127.572 209.44 127.874 209.264 128.224 209.264C128.28 209.264 128.336 209.264 128.391 209.275C128.646 209.319 129.258 209.517 129.52 210.531C129.695 211.203 129.759 212.437 129.051 214.508C128.383 216.469 127.175 218.771 125.457 221.382C125.712 218.87 126.523 211.643 127.429 209.738ZM131.246 222.021C130.721 222.748 129.528 222.968 127.787 222.66C126.873 222.495 126.022 222.23 125.569 222.065C125.911 221.646 126.547 220.886 127.286 220.181C128.701 218.826 129.83 218.242 130.554 218.518C130.991 218.683 131.285 219.157 131.46 219.961C131.651 220.886 131.58 221.558 131.246 222.021Z" fill="#FFCF2D"/>
<path d="M108.983 212.249L107.146 215.103C105.063 218.342 104.721 223.057 106.304 226.802L114.39 246.015C115.972 249.772 118.874 252.074 122.007 252.074H125.354C127.779 252.074 129.584 248.99 129.083 245.707L124.869 218.11C123.971 212.205 120.21 207.986 115.853 207.986C113.237 207.975 110.732 209.528 108.983 212.249Z" fill="white" stroke="#3FB1B5" stroke-width="5" stroke-miterlimit="10"/>
<path d="M115.24 220.556L125.68 248.582C126.173 249.849 126.785 250.664 127.485 251.182C126.881 251.744 126.149 252.085 125.354 252.085H122.007C118.866 252.085 115.964 249.772 114.39 246.026L106.304 226.802C105.978 226.02 105.731 225.205 105.564 224.357C104.419 218.463 109.261 213.836 112.895 217.295C113.722 218.077 114.533 219.135 115.24 220.556Z" fill="#3FB1B5"/>
<path d="M115.264 220.622H105.628C105.676 220.413 105.731 220.214 105.795 220.027H114.954C115.05 220.203 115.145 220.38 115.241 220.567L115.264 220.622Z" fill="white"/>
<path d="M116.68 224.412H105.58C105.58 224.39 105.572 224.368 105.572 224.357C105.54 224.18 105.508 223.993 105.485 223.817H116.465L116.68 224.412Z" fill="white"/>
<path d="M118.095 228.212H106.9L106.646 227.606H117.872L118.095 228.212Z" fill="white"/>
<path d="M119.51 232.013H108.498L108.244 231.407H119.287L119.51 232.013Z" fill="white"/>
<path d="M120.925 235.803H110.096L109.842 235.208H120.703L120.925 235.803Z" fill="white"/>
<path d="M122.341 239.604H111.694L111.44 238.998H122.11L122.341 239.604Z" fill="white"/>
<path d="M123.756 243.404H113.293L113.038 242.798H123.525L123.756 243.404Z" fill="white"/>
<path d="M125.163 247.194H114.954C114.851 246.996 114.748 246.797 114.652 246.599H124.941L125.163 247.194Z" fill="white"/>
<path d="M127.254 250.995H118.381C118.095 250.819 117.816 250.62 117.546 250.4H126.682C126.865 250.62 127.055 250.819 127.254 250.995Z" fill="white"/>
<path d="M96.54 188.376C96.4684 191.285 90.5132 193.642 83.1825 193.642C75.8517 193.642 69.8965 191.296 69.825 188.376V165.473H96.54V188.376Z" fill="#73325A"/>
<path d="M94.7669 192.178L94.7272 194.899L94.3455 221.46V220.689C94.3455 213.87 90.3542 208.339 85.4326 208.339H84.8919C82.3794 208.339 80.1134 209.694 78.4358 211.876L77.267 200.925L76.5435 194.15C78.4994 194.602 80.7654 194.855 83.1745 194.855C88.1359 194.844 92.4532 193.764 94.7669 192.178Z" fill="#A0505A"/>
<path d="M94.768 192.177L94.7283 194.898C91.7705 197.806 82.6349 201.387 77.276 200.913L76.5525 194.138C78.5084 194.579 80.7744 194.843 83.1835 194.843C88.137 194.843 92.4543 193.763 94.768 192.177Z" fill="#73325A"/>
<path d="M85.838 252.438H87.3169C91.1969 252.438 94.3455 248.075 94.3455 242.699V220.688C94.3455 213.869 90.3541 208.338 85.4325 208.338H84.8919C79.1672 208.338 74.7545 215.334 75.5257 223.2L77.3942 242.236C77.9746 248.075 81.5763 252.438 85.838 252.438Z" fill="white" stroke="#3FB1B5" stroke-width="5" stroke-miterlimit="10"/>
<path d="M92.1352 249.783C90.879 251.424 89.1775 252.438 87.317 252.438H85.8381C81.5764 252.438 77.9746 248.075 77.4022 242.237L75.5337 223.2C75.5019 222.836 75.4701 222.473 75.4622 222.12C75.9392 217.901 78.571 214.673 81.7513 214.673C83.3177 214.673 84.7647 215.466 85.8858 216.788C87.0069 218.11 87.794 219.972 88.0405 222.12L90.4973 245.354C90.6802 247.084 91.2686 248.626 92.1352 249.783Z" fill="#3FB1B5"/>
<path d="M87.301 219.179H76.1936C76.2731 218.969 76.3685 218.771 76.4639 218.584H87.0386C87.134 218.771 87.2215 218.969 87.301 219.179Z" fill="white"/>
<path d="M88.1278 222.968H75.5097C75.4938 222.77 75.4779 222.572 75.47 222.374H88.0642L88.1278 222.968Z" fill="white"/>
<path d="M88.5333 226.769H75.8834L75.8198 226.174H88.4697L88.5333 226.769Z" fill="white"/>
<path d="M88.931 230.57H76.2572L76.1936 229.964H88.8673L88.931 230.57Z" fill="white"/>
<path d="M89.3363 234.36H76.6307L76.5671 233.765H89.2727L89.3363 234.36Z" fill="white"/>
<path d="M89.7339 238.16H76.9966L76.9409 237.565H89.6703L89.7339 238.16Z" fill="white"/>
<path d="M90.1395 241.961H77.3703L77.3147 241.355H90.0759L90.1395 241.961Z" fill="white"/>
<path d="M90.5449 245.751H78.1574C78.0858 245.552 78.0222 245.354 77.9666 245.156H90.4733L90.4972 245.354C90.5131 245.486 90.529 245.619 90.5449 245.751Z" fill="white"/>
<path d="M91.9682 249.552H80.2566C80.0975 249.364 79.9385 249.155 79.7954 248.957H91.6025C91.7138 249.166 91.841 249.364 91.9682 249.552Z" fill="white"/>
<path d="M102.32 69.331V87.883C101.74 85.7788 97.1441 86.0763 92.0874 88.7313C87.7541 91.0117 84.5022 94.1404 84.0251 96.3107V70.2013C84.0251 62.4346 87.0226 55.4942 91.6262 51.7045C97.6053 53.1476 102.32 60.3635 102.32 69.331Z" fill="#FFCF2D"/>
<path d="M83.6753 52.5416C79.6044 56.4635 77.0124 62.9743 77.0124 70.2012V91.7387H54.3762L57.5009 73.0986C58.8287 65.1556 62.9791 58.8211 68.3857 56.122L83.6753 52.5416Z" fill="#FFCF2D"/>
<path d="M129.457 144.729V187.969C129.457 185.027 123.215 182.648 115.837 182.648C108.458 182.648 102.479 185.027 102.479 187.969V167.247C102.479 166.277 101.907 165.484 101.207 165.484H60.6257C48.4211 165.484 39.3968 149.741 42.1558 133.271L51.9513 74.7952C53.5097 65.4642 58.964 58.3585 65.7779 56.75L68.3858 56.1331C62.9792 58.8322 58.8288 65.1667 57.501 73.1097L54.3763 91.7498H77.0125V70.2013C77.0125 62.9744 79.6125 56.4526 83.6754 52.5417L87.2533 51.7044C87.9927 51.5282 88.7163 51.451 89.4398 51.451C89.5352 51.451 89.6227 51.451 89.7181 51.451C89.8056 51.451 89.893 51.4621 89.9725 51.4621C89.9884 51.4621 90.0043 51.4621 90.0202 51.4621C90.0838 51.4621 90.1554 51.4731 90.219 51.4731C90.2269 51.4731 90.2428 51.4731 90.2508 51.4731C90.2906 51.4731 90.3303 51.4841 90.3621 51.4841C90.4337 51.4951 90.4973 51.4951 90.5688 51.5061C90.6483 51.5171 90.7358 51.5282 90.8153 51.5392C90.8948 51.5502 90.9664 51.5612 91.0459 51.5722C91.0618 51.5722 91.0777 51.5833 91.1016 51.5833C91.1811 51.5943 91.2685 51.6163 91.348 51.6273C91.356 51.6273 91.3639 51.6273 91.3639 51.6273C91.4514 51.6494 91.5388 51.6604 91.6263 51.6824C87.0227 55.4721 84.0252 62.4126 84.0252 70.1793V123.114H113.873C122.476 123.136 129.457 132.798 129.457 144.729Z" fill="#FE5244"/>
<path d="M84.1923 52.0569C80.1214 55.9788 77.0046 62.9743 77.0046 70.2012V91.7387H54.3684L57.4931 73.0986C58.8209 65.1556 62.6214 58.6999 68.036 56.0008" stroke="white" stroke-width="6" stroke-miterlimit="10" stroke-linecap="round"/>
<path d="M102.479 160.604C102.479 154.467 104.046 148.529 106.9 143.847" stroke="white" stroke-width="6" stroke-miterlimit="10" stroke-linecap="round"/>
<path d="M69.4115 158.411C69.3717 158.411 69.332 158.4 69.3002 158.367L68.2506 157.574C68.1314 157.486 68.0916 157.287 68.1552 157.122C68.2188 156.957 68.362 156.902 68.4812 156.99L69.5307 157.783C69.65 157.871 69.6898 158.07 69.6261 158.235C69.5784 158.345 69.4989 158.411 69.4115 158.411ZM70.461 158.037C70.3735 158.037 70.294 157.97 70.2543 157.86C70.1907 157.695 70.2304 157.497 70.3497 157.409L71.3992 156.615C71.5185 156.527 71.6616 156.593 71.7252 156.748C71.7888 156.913 71.749 157.111 71.6298 157.199L70.5803 157.993C70.5405 158.015 70.5007 158.037 70.461 158.037ZM67.3124 156.836C67.2727 156.836 67.2329 156.825 67.2011 156.792L66.1516 155.999C66.0323 155.91 65.9926 155.712 66.0562 155.547C66.1198 155.382 66.2629 155.326 66.3822 155.415L67.4317 156.208C67.551 156.296 67.5907 156.494 67.5271 156.659C67.4794 156.77 67.3999 156.836 67.3124 156.836ZM72.5521 156.45C72.4646 156.45 72.3851 156.384 72.3454 156.274C72.2818 156.109 72.3215 155.91 72.4408 155.822L73.4903 155.029C73.6732 154.897 73.8401 154.743 74.0071 154.577C74.1105 154.467 74.2615 154.5 74.341 154.643C74.4205 154.787 74.3967 154.996 74.2933 155.106C74.1105 155.293 73.9196 155.459 73.7209 155.613L72.6714 156.406C72.6316 156.439 72.5918 156.45 72.5521 156.45ZM65.2373 155.205C65.1895 155.205 65.1418 155.183 65.0941 155.139C64.7602 154.798 64.4501 154.401 64.1877 153.949C64.1003 153.806 64.1162 153.597 64.2195 153.487C64.3229 153.366 64.474 153.388 64.5535 153.531C64.792 153.938 65.0703 154.291 65.3724 154.599C65.4758 154.71 65.4996 154.919 65.4281 155.062C65.3883 155.161 65.3168 155.205 65.2373 155.205ZM75.0089 154.049C74.9533 154.049 74.9056 154.027 74.8579 153.971C74.7545 153.861 74.7386 153.652 74.826 153.509C75.0646 153.101 75.2633 152.66 75.4224 152.176C75.478 152.01 75.6211 151.933 75.7404 152.01C75.8597 152.088 75.9153 152.286 75.8597 152.451C75.6847 152.98 75.4621 153.476 75.1997 153.916C75.1441 154.004 75.0805 154.049 75.0089 154.049ZM63.7425 152.682C63.655 152.682 63.5676 152.616 63.5278 152.495C63.3529 151.966 63.2257 151.416 63.1462 150.843C63.1223 150.666 63.2098 150.49 63.337 150.457C63.4642 150.424 63.5914 150.545 63.6153 150.722C63.6868 151.239 63.7981 151.735 63.9572 152.209C64.0128 152.374 63.9572 152.572 63.8379 152.649C63.8061 152.671 63.7743 152.682 63.7425 152.682ZM75.9948 151.074C75.9789 151.074 75.963 151.074 75.9551 151.074C75.8279 151.041 75.7404 150.865 75.7643 150.688C75.812 150.325 75.8358 149.961 75.8358 149.598V149.102C75.8358 148.915 75.9392 148.772 76.0743 148.772C76.2095 148.772 76.3129 148.915 76.3129 149.102V149.598C76.3129 150.005 76.289 150.413 76.2334 150.81C76.2095 150.964 76.1061 151.074 75.9948 151.074ZM63.3052 149.466C63.17 149.466 63.0667 149.322 63.0667 149.135V147.483C63.0667 147.295 63.17 147.152 63.3052 147.152C63.4403 147.152 63.5437 147.295 63.5437 147.483V149.135C63.5437 149.311 63.4324 149.466 63.3052 149.466ZM76.0664 147.78C75.9312 147.78 75.8279 147.637 75.8279 147.45V145.797C75.8279 145.61 75.9312 145.467 76.0664 145.467C76.2015 145.467 76.3049 145.61 76.3049 145.797V147.45C76.3049 147.637 76.2015 147.78 76.0664 147.78ZM63.3052 146.161C63.17 146.161 63.0667 146.017 63.0667 145.83V144.178C63.0667 143.99 63.17 143.847 63.3052 143.847C63.4403 143.847 63.5437 143.99 63.5437 144.178V145.83C63.5437 146.006 63.4324 146.161 63.3052 146.161ZM76.0664 144.475C75.9312 144.475 75.8279 144.332 75.8279 144.145V142.492C75.8279 142.305 75.9312 142.162 76.0664 142.162C76.2015 142.162 76.3049 142.305 76.3049 142.492V144.145C76.3049 144.332 76.2015 144.475 76.0664 144.475ZM63.3052 142.856C63.17 142.856 63.0667 142.712 63.0667 142.525V140.873C63.0667 140.685 63.17 140.542 63.3052 140.542C63.4403 140.542 63.5437 140.685 63.5437 140.873V142.525C63.5437 142.701 63.4324 142.856 63.3052 142.856ZM76.0664 141.17C75.9312 141.17 75.8279 141.027 75.8279 140.84V139.187C75.8279 139 75.9312 138.857 76.0664 138.857C76.2015 138.857 76.3049 139 76.3049 139.187V140.84C76.3049 141.027 76.2015 141.17 76.0664 141.17ZM63.3052 139.551C63.17 139.551 63.0667 139.407 63.0667 139.22V137.799H63.7107C63.8458 137.799 63.9492 137.942 63.9492 138.13C63.9492 138.317 63.8458 138.46 63.7107 138.46H63.5437V139.22C63.5437 139.396 63.4324 139.551 63.3052 139.551ZM75.637 138.46H74.4444C74.3092 138.46 74.2059 138.317 74.2059 138.13C74.2059 137.942 74.3092 137.799 74.4444 137.799H75.637C75.7722 137.799 75.8756 137.942 75.8756 138.13C75.8756 138.317 75.7722 138.46 75.637 138.46ZM73.2518 138.46H72.0591C71.924 138.46 71.8206 138.317 71.8206 138.13C71.8206 137.942 71.924 137.799 72.0591 137.799H73.2518C73.3869 137.799 73.4903 137.942 73.4903 138.13C73.4903 138.317 73.3869 138.46 73.2518 138.46ZM70.8665 138.46H69.6739C69.5387 138.46 69.4353 138.317 69.4353 138.13C69.4353 137.942 69.5387 137.799 69.6739 137.799H70.8665C71.0017 137.799 71.105 137.942 71.105 138.13C71.105 138.317 71.0017 138.46 70.8665 138.46ZM68.4812 138.46H67.2886C67.1534 138.46 67.0501 138.317 67.0501 138.13C67.0501 137.942 67.1534 137.799 67.2886 137.799H68.4812C68.6164 137.799 68.7198 137.942 68.7198 138.13C68.7198 138.317 68.6164 138.46 68.4812 138.46ZM66.096 138.46H64.9033C64.7682 138.46 64.6648 138.317 64.6648 138.13C64.6648 137.942 64.7682 137.799 64.9033 137.799H66.096C66.2311 137.799 66.3345 137.942 66.3345 138.13C66.3345 138.317 66.2311 138.46 66.096 138.46Z" fill="white"/>
<path d="M46.9105 156.582C46.823 156.582 46.7435 156.516 46.7037 156.406C46.6401 156.241 46.6799 156.043 46.7991 155.954L47.7692 155.216C47.793 155.194 47.8169 155.183 47.8407 155.161C47.952 155.073 48.1031 155.128 48.1667 155.282C48.2303 155.437 48.1906 155.646 48.0792 155.734C48.0554 155.756 48.0315 155.778 47.9997 155.789L47.0297 156.527C46.99 156.571 46.9502 156.582 46.9105 156.582ZM48.922 154.82C48.8584 154.82 48.7948 154.787 48.7471 154.71C48.6597 154.577 48.6676 154.368 48.763 154.247C49.0413 153.894 49.2878 153.487 49.5025 153.057C49.574 152.903 49.7251 152.87 49.8364 152.969C49.9477 153.068 49.9716 153.277 49.9 153.432C49.6694 153.905 49.3911 154.346 49.089 154.743C49.0334 154.798 48.9777 154.82 48.922 154.82ZM50.2498 152.11C50.218 152.11 50.1942 152.099 50.1624 152.088C50.0431 152.022 49.9795 151.834 50.0272 151.658C50.1624 151.162 50.2578 150.655 50.3135 150.138C50.3294 149.961 50.4486 149.829 50.5838 149.851C50.711 149.873 50.8064 150.039 50.7905 150.226C50.7349 150.799 50.6315 151.361 50.4804 151.9C50.4327 152.033 50.3453 152.11 50.2498 152.11ZM50.5917 148.871C50.4566 148.871 50.3532 148.728 50.3532 148.54V146.888C50.3532 146.7 50.4566 146.557 50.5917 146.557C50.7269 146.557 50.8303 146.7 50.8303 146.888V148.54C50.8303 148.717 50.7269 148.871 50.5917 148.871ZM50.5917 145.566C50.4566 145.566 50.3532 145.423 50.3532 145.235V143.583C50.3532 143.396 50.4566 143.252 50.5917 143.252C50.7269 143.252 50.8303 143.396 50.8303 143.583V145.235C50.8303 145.412 50.7269 145.566 50.5917 145.566ZM50.5917 142.261C50.4566 142.261 50.3532 142.118 50.3532 141.93V140.278C50.3532 140.091 50.4566 139.947 50.5917 139.947C50.7269 139.947 50.8303 140.091 50.8303 140.278V141.93C50.8303 142.107 50.7269 142.261 50.5917 142.261ZM50.5917 138.956C50.4566 138.956 50.3532 138.813 50.3532 138.625V138.46H49.7569C49.6217 138.46 49.5184 138.317 49.5184 138.13C49.5184 137.942 49.6217 137.799 49.7569 137.799H50.8303V138.625C50.8303 138.802 50.7269 138.956 50.5917 138.956ZM48.5643 138.46H47.3716C47.2365 138.46 47.1331 138.317 47.1331 138.13C47.1331 137.942 47.2365 137.799 47.3716 137.799H48.5643C48.6994 137.799 48.8028 137.942 48.8028 138.13C48.8028 138.317 48.6915 138.46 48.5643 138.46ZM46.179 138.46H44.9863C44.8512 138.46 44.7478 138.317 44.7478 138.13C44.7478 137.942 44.8512 137.799 44.9863 137.799H46.179C46.3141 137.799 46.4175 137.942 46.4175 138.13C46.4175 138.317 46.3062 138.46 46.179 138.46ZM43.7937 138.46H42.6011C42.4659 138.46 42.3625 138.317 42.3625 138.13C42.3625 137.942 42.4659 137.799 42.6011 137.799H43.7937C43.9289 137.799 44.0322 137.942 44.0322 138.13C44.0322 138.317 43.9209 138.46 43.7937 138.46Z" fill="white"/>
<path d="M102.32 87.8833C102.901 89.9875 99.2273 93.7221 94.1785 96.3771C89.1297 99.0321 84.6056 99.4397 84.0252 97.3245C83.4448 95.2093 87.0306 91.3976 92.0874 88.7426C97.1442 86.0876 101.74 85.7681 102.32 87.8833Z" fill="#FE5244"/>
<path d="M105.143 156.23V157.398C104.88 157.31 104.602 157.265 104.324 157.265H103.298C101.779 157.265 100.483 155.921 99.9905 154.049L102.901 153.509C104.085 153.288 105.143 154.566 105.143 156.23Z" fill="#73325A"/>
<path d="M107.831 162.125V171.092C107.831 173.185 106.606 174.882 105.096 174.882H102.05C101.295 174.882 100.611 174.463 100.118 173.769C99.6255 173.086 99.3154 172.139 99.3154 171.092H101.295C101.947 171.092 102.472 170.365 102.472 169.462V167.115C102.472 166.212 101.947 165.485 101.295 165.485H91.1736C87.222 165.485 84.0178 161.045 84.0178 155.57V96.3224C84.4949 94.1521 87.7468 91.0124 92.08 88.743C95.0378 87.1896 97.8445 86.4405 99.7765 86.5066V152.408C99.7765 155.096 101.351 157.277 103.291 157.277H104.316C106.257 157.266 107.831 159.436 107.831 162.125Z" fill="#A0505A"/>
<path d="M99.7765 86.4949V92.4879C98.3374 93.8319 96.3894 95.209 94.1711 96.3657C89.1144 99.0207 84.5982 99.4283 84.0178 97.3132V96.3107C84.4949 94.1404 87.7468 91.0006 92.08 88.7312C95.0457 87.1779 97.8445 86.4288 99.7765 86.4949Z" fill="#73325A"/>
<path d="M86.5537 41.8668L83.5641 52.5419L68.1553 56.3647L72.1784 41.8668H86.5537Z" fill="#A0505A"/>
<path d="M86.5534 41.8666L84.9394 47.6393L69.6577 50.9443L72.1782 41.8666H86.5534Z" fill="#73325A"/>
<path d="M95.5857 20.1419C95.5857 21.5851 93.7809 23.1825 91.6977 24.5265C88.8593 26.3663 85.5119 27.7654 85.5119 27.7654L83.2539 33.6593C86.3229 35.9177 87.5235 39.9718 88.0006 42.8031C88.3027 44.6098 88.3027 45.8988 88.3027 45.8988H66.6603C66.6603 45.8988 60.9754 20.3843 74.6748 14.2811C83.0551 10.5465 95.5857 16.7158 95.5857 20.1419Z" fill="white" stroke="#FFCF2D" stroke-width="6" stroke-miterlimit="10" stroke-linecap="round"/>
<path d="M72.6713 17.9165C75.6442 17.9165 78.0541 14.5773 78.0541 10.4582C78.0541 6.33917 75.6442 3 72.6713 3C69.6985 3 67.2886 6.33917 67.2886 10.4582C67.2886 14.5773 69.6985 17.9165 72.6713 17.9165Z" fill="white" stroke="#FFCF2D" stroke-width="6" stroke-miterlimit="10" stroke-linecap="round"/>
<path d="M87.9927 42.8043C87.5474 40.1272 86.4343 36.3155 83.6913 34.013H82.9836C82.3316 34.013 81.7353 33.6495 81.306 33.0546C80.8766 32.4597 80.6143 31.6334 80.6143 30.7301C80.6143 28.9123 81.6717 27.4471 82.9836 27.4471L85.9811 27.5353H86.0606C86.1163 27.5132 86.1719 27.4802 86.2355 27.4581C87.0465 27.2158 89.6147 26.3565 91.7455 24.8802L91.992 26.9183L92.7871 33.4512C93.3278 37.9349 91.1094 42.0661 87.9927 42.8043Z" fill="#A0505A"/>
<path d="M91.984 26.906C89.3761 28.3712 85.9731 27.5229 85.9731 27.5229C85.9731 27.5229 89.1774 26.6416 91.7376 24.8679L91.984 26.906Z" fill="#73325A"/>
<path d="M84.8283 31.3568C84.8283 30.1009 84.0968 29.0874 83.1904 29.0874" stroke="#73325A" stroke-width="5" stroke-miterlimit="10" stroke-linecap="round"/>
<path d="M93.2483 171.091L102.479 277.534" stroke="#66B0F0" stroke-width="6" stroke-miterlimit="10"/>
<path d="M53.2314 171.091L44.0083 277.534" stroke="#66B0F0" stroke-width="6" stroke-miterlimit="10"/>
<path d="M47.1729 240.981H99.3069" stroke="#66B0F0" stroke-width="6" stroke-miterlimit="10"/>
<path d="M45.2088 171.091H101.271C101.938 171.091 102.479 170.342 102.479 169.417V167.147C102.479 166.222 101.938 165.473 101.271 165.473H45.2088C44.5409 165.473 44.0002 166.222 44.0002 167.147V169.417C44.0082 170.342 44.5489 171.091 45.2088 171.091Z" fill="white" stroke="#FFCF2D" stroke-width="6" stroke-miterlimit="10"/>
<path d="M215.298 82.766H129.809V35.0898C129.809 31.8616 132.522 29.2449 135.869 29.2449H209.238C212.585 29.2449 215.298 31.8616 215.298 35.0898V82.766Z" fill="white" stroke="#3FB1B5" stroke-width="6" stroke-miterlimit="10"/>
<path d="M228.942 104.986C232.214 108.213 231.453 114.534 227.585 114.534H111.086C107.826 114.534 106.71 107.868 109.906 104.813L228.942 104.986Z" fill="#3FB1B5" stroke="#3FB1B5" stroke-width="6" stroke-miterlimit="10"/>
<path d="M228.036 110.363H112.709C110.65 110.363 109.834 106.679 111.541 105.076L129.908 87.7836H214.301L229.367 105.248C230.873 106.984 229.994 110.363 228.036 110.363Z" fill="white" stroke="#3FB1B5" stroke-width="6" stroke-miterlimit="10"/>
<path d="M224.385 104.889H116.48C114.555 104.889 113.792 102.027 115.38 100.797L130.895 87.4072H211.526L225.622 100.932C227.042 102.277 226.217 104.889 224.385 104.889Z" fill="white" stroke="#3FB1B5" stroke-width="6" stroke-miterlimit="10"/>
<path d="M204.547 87.4072L218.658 104.889" stroke="#3FB1B5" stroke-width="6" stroke-miterlimit="10"/>
<path d="M197.065 87.4072L209.495 104.889" stroke="#3FB1B5" stroke-width="6" stroke-miterlimit="10"/>
<path d="M190.071 87.4072L200.852 104.889" stroke="#3FB1B5" stroke-width="6" stroke-miterlimit="10"/>
<path d="M182.252 87.4072L191.369 104.889" stroke="#3FB1B5" stroke-width="6" stroke-miterlimit="10"/>
<path d="M175.761 87.4089L180.205 104.891" stroke="#3FB1B5" stroke-width="6" stroke-miterlimit="10"/>
<path d="M137.447 87.4089L123.337 104.891" stroke="#3FB1B5" stroke-width="6" stroke-miterlimit="10"/>
<path d="M144.93 87.4072L132.5 104.889" stroke="#3FB1B5" stroke-width="6" stroke-miterlimit="10"/>
<path d="M151.924 87.4072L141.143 104.889" stroke="#3FB1B5" stroke-width="6" stroke-miterlimit="10"/>
<path d="M159.743 87.4072L150.626 104.889" stroke="#3FB1B5" stroke-width="6" stroke-miterlimit="10"/>
<path d="M166.233 87.4072L161.789 104.889" stroke="#3FB1B5" stroke-width="6" stroke-miterlimit="10"/>
<path d="M170.631 105.101V87.4072" stroke="#3FB1B5" stroke-width="6" stroke-miterlimit="10"/>
<path d="M123.337 93.939H218.353" stroke="#3FB1B5" stroke-width="6" stroke-miterlimit="10"/>
<path d="M215.298 80.4036H132.849L134.332 66.3696C135.245 57.7317 139.89 50.6385 146.164 48.2451L166.259 42.675H181.888L201.983 48.2451C208.273 50.6168 212.918 57.7317 213.815 66.3696L215.298 80.4036Z" fill="#FFCF2D"/>
<path d="M179.639 58.711L173.69 50.6823C173.56 50.5082 173.56 50.2254 173.69 50.0731C173.82 49.899 174.032 49.899 174.146 50.0731L179.606 57.449L188.081 44.6335C188.195 44.4595 188.407 44.4377 188.537 44.59C188.667 44.7423 188.684 45.0252 188.57 45.1992L179.639 58.711Z" fill="white"/>
<path d="M168.589 58.7106L159.658 45.1989C159.544 45.0248 159.544 44.742 159.69 44.5896C159.821 44.4373 160.033 44.4373 160.147 44.6332L168.621 57.4487L174.081 50.0727C174.211 49.8986 174.407 49.8986 174.537 50.0727C174.668 50.2468 174.668 50.5079 174.537 50.6819L168.589 58.7106Z" fill="white"/>
<path d="M174.212 63.9541C173.429 63.9541 172.794 63.1056 172.794 62.0612C172.794 61.0168 173.429 60.1682 174.212 60.1682C174.994 60.1682 175.629 61.0168 175.629 62.0612C175.629 63.1056 174.994 63.9541 174.212 63.9541ZM174.212 61.0385C173.788 61.0385 173.446 61.4955 173.446 62.0612C173.446 62.6269 173.788 63.0838 174.212 63.0838C174.635 63.0838 174.978 62.6269 174.978 62.0612C174.978 61.4955 174.635 61.0385 174.212 61.0385Z" fill="white"/>
<path d="M174.212 74.6157C173.429 74.6157 172.794 73.7672 172.794 72.7228C172.794 71.6784 173.429 70.8298 174.212 70.8298C174.994 70.8298 175.629 71.6784 175.629 72.7228C175.629 73.7672 174.994 74.6157 174.212 74.6157ZM174.212 71.7002C173.788 71.7002 173.446 72.1571 173.446 72.7228C173.446 73.2885 173.788 73.7454 174.212 73.7454C174.635 73.7454 174.978 73.2885 174.978 72.7228C174.978 72.1571 174.635 71.7002 174.212 71.7002Z" fill="white"/>
<path d="M166.161 79.9469H139.531L132.426 51.7919L159.055 41.6091L166.161 79.9469Z" fill="white" stroke="#3FB1B5" stroke-width="4" stroke-miterlimit="10"/>
<path d="M140.917 55.4471H140.411C139.124 55.4471 138.081 54.0546 138.081 52.3357V42.5663C138.081 41.87 138.505 41.3043 139.026 41.3043H141.226C141.748 41.3043 142.171 41.87 142.171 42.5663V53.75C142.188 54.6856 141.617 55.4471 140.917 55.4471Z" fill="white"/>
<path d="M140.917 55.4471H140.411C139.124 55.4471 138.081 54.0546 138.081 52.3357V42.5663C138.081 41.87 138.505 41.3043 139.026 41.3043H141.226C141.748 41.3043 142.171 41.87 142.171 42.5663V53.75C142.188 54.6856 141.617 55.4471 140.917 55.4471Z" stroke="#3FB1B5" stroke-width="4" stroke-miterlimit="10" stroke-linecap="round"/>
<path d="M151.64 55.4471H152.145C153.433 55.4471 154.476 54.0546 154.476 52.3357V42.5663C154.476 41.87 154.052 41.3043 153.531 41.3043H151.314C150.793 41.3043 150.369 41.87 150.369 42.5663V53.75C150.369 54.6856 150.939 55.4471 151.64 55.4471Z" fill="white"/>
<path d="M145.007 56.5796H143.834C142.921 56.5796 142.188 55.6005 142.188 54.382V42.5891C142.188 41.8929 142.612 41.3271 143.133 41.3271H145.333C145.855 41.3271 146.279 41.8929 146.279 42.5891V54.8824C146.279 55.818 145.708 56.5796 145.007 56.5796Z" fill="white"/>
<path d="M149.114 57.0137H148.136C147.109 57.0137 146.278 55.904 146.278 54.5333V42.5663C146.278 41.87 146.702 41.3043 147.224 41.3043H149.424C149.945 41.3043 150.369 41.87 150.369 42.5663V55.3165C150.369 56.2521 149.799 57.0137 149.114 57.0137Z" fill="white"/>
<path d="M151.64 55.4471H152.145C153.433 55.4471 154.476 54.0546 154.476 52.3357V42.5663C154.476 41.87 154.052 41.3043 153.531 41.3043H151.314C150.793 41.3043 150.369 41.87 150.369 42.5663V53.75C150.369 54.6856 150.939 55.4471 151.64 55.4471Z" stroke="#3FB1B5" stroke-width="4" stroke-miterlimit="10" stroke-linecap="round"/>
<path d="M145.007 56.5796H143.834C142.921 56.5796 142.188 55.6005 142.188 54.382V42.5891C142.188 41.8929 142.612 41.3271 143.133 41.3271H145.333C145.855 41.3271 146.279 41.8929 146.279 42.5891V54.8824C146.279 55.818 145.708 56.5796 145.007 56.5796Z" stroke="#3FB1B5" stroke-width="4" stroke-miterlimit="10" stroke-linecap="round"/>
<path d="M149.114 57.0137H148.136C147.109 57.0137 146.278 55.904 146.278 54.5333V42.5663C146.278 41.87 146.702 41.3043 147.224 41.3043H149.424C149.945 41.3043 150.369 41.87 150.369 42.5663V55.3165C150.369 56.2521 149.799 57.0137 149.114 57.0137Z" stroke="#3FB1B5" stroke-width="4" stroke-miterlimit="10" stroke-linecap="round"/>
<path d="M181.904 29.8813V45.7648C181.904 48.5063 178.4 50.7474 174.081 50.7474C169.762 50.7474 166.259 48.5063 166.259 45.7648V29.8813H181.904Z" fill="white"/>
<path d="M181.904 29.8816C181.904 41.8703 176.151 45.4386 170.626 44.8077C170.61 44.8077 170.594 44.8077 170.577 44.8077C168.133 44.503 166.275 41.718 166.275 38.4543V29.9034H181.904V29.8816Z" fill="#3FB1B5"/>
<path d="M185.538 25.7905V26.5956C185.538 28.3797 184.463 29.8158 183.126 29.8158H181.888L181.904 30.1857C181.904 35.3206 178.791 39.4764 174.945 39.4764H173.234C169.388 39.4764 166.275 35.3206 166.275 30.1857L166.291 29.8158H165.053C163.716 29.8158 162.641 28.3797 162.641 26.5956V25.7905C162.641 24.0064 163.716 22.5703 165.053 22.5703H166.633L166.813 18.6321C166.813 18.0229 166.878 17.4354 167.008 16.8915C171.669 18.4363 177.129 14.4328 178.596 13.2361C180.225 14.0629 181.383 16.1517 181.383 18.6103L181.562 22.5486H183.143C184.463 22.5703 185.538 24.0064 185.538 25.7905Z" fill="white"/>
<path d="M183.24 22.5704H181.545L181.366 18.6322C181.366 16.1735 180.209 14.0847 178.579 13.2579C177.112 14.4329 171.653 18.4364 166.992 16.9133C166.861 17.4572 166.796 18.0447 166.796 18.6539L166.617 22.5921H165.558C165.558 22.5921 163.39 8.57994 165.525 6.01248C167.106 4.11953 181.578 8.25356 183.175 11.1909C184.071 12.8663 183.24 22.5704 183.24 22.5704Z" fill="#E57281"/>
<path d="M179.166 21.7216C179.117 21.7216 179.052 21.6998 179.003 21.6346C178.987 21.6128 177.927 20.4596 176.232 20.4596C176.102 20.4596 175.988 20.3073 175.988 20.1333C175.988 19.9592 176.102 19.8069 176.232 19.8069C178.107 19.8069 179.264 21.0689 179.313 21.1341C179.411 21.2429 179.427 21.4605 179.345 21.5911C179.313 21.6781 179.231 21.7216 179.166 21.7216Z" fill="#3FB1B5"/>
<path d="M172.973 28.4669C172.941 28.4669 172.908 28.4669 172.892 28.4451C172.761 28.3799 172.696 28.184 172.745 28.0317C173.201 26.4216 173.087 24.3981 172.452 22.614C172.077 21.5261 171.539 20.7428 171.066 20.5252C170.023 20.0465 168.557 20.721 168.54 20.721C168.41 20.7863 168.279 20.6992 168.231 20.5252C168.182 20.3511 168.247 20.1771 168.377 20.1118C168.442 20.09 170.007 19.372 171.213 19.9159C171.816 20.1988 172.435 21.0909 172.875 22.3529C173.56 24.2893 173.674 26.5087 173.185 28.2928C173.169 28.3799 173.071 28.4669 172.973 28.4669Z" fill="#3FB1B5"/>
<path d="M176.184 31.926C176.2 32.1001 176.086 32.2524 175.956 32.2741H175.939C175.809 32.2741 175.711 32.1436 175.695 31.9695C175.679 31.7519 175.646 31.5343 175.597 31.3385C174.896 31.7954 174.261 31.9477 173.739 31.9477C172.713 31.9477 172.093 31.382 172.061 31.3385C171.947 31.2297 171.93 31.0339 171.995 30.8816C172.077 30.7293 172.224 30.7075 172.338 30.7946C172.37 30.8163 172.892 31.295 173.739 31.295C174.196 31.295 174.75 31.1644 175.385 30.751C175.287 30.5335 175.19 30.4029 175.19 30.4029C175.092 30.2724 175.108 30.0548 175.206 29.946C175.304 29.8372 175.467 29.8372 175.548 29.9678C175.581 30.033 176.135 30.8598 176.184 31.926Z" fill="#3FB1B5"/>
<path d="M177.063 25.7084C177.288 25.6897 177.447 25.1884 177.419 24.5887C177.391 23.989 177.186 23.518 176.962 23.5367C176.737 23.5554 176.578 24.0567 176.606 24.6564C176.634 25.2561 176.839 25.7271 177.063 25.7084Z" fill="#3FB1B5"/>
<path d="M170.41 25.6209C170.616 25.6037 170.763 25.1425 170.737 24.5908C170.712 24.039 170.523 23.6057 170.317 23.6229C170.11 23.6401 169.963 24.1013 169.989 24.653C170.015 25.2047 170.203 25.6381 170.41 25.6209Z" fill="#3FB1B5"/>
<path d="M165.851 26.8348C165.72 26.8348 165.606 26.6825 165.606 26.5085C165.606 25.5511 165.02 24.7896 164.319 24.7896C164.189 24.7896 164.074 24.6373 164.074 24.4632C164.074 24.2891 164.189 24.1368 164.319 24.1368C165.297 24.1368 166.095 25.203 166.095 26.5085C166.095 26.7043 165.981 26.8348 165.851 26.8348Z" fill="#3FB1B5"/>
<path d="M182.246 26.8348C182.116 26.8348 182.001 26.6825 182.001 26.5085C182.001 25.203 182.8 24.1368 183.778 24.1368C183.908 24.1368 184.022 24.2891 184.022 24.4632C184.022 24.6373 183.908 24.7896 183.778 24.7896C183.061 24.7896 182.49 25.5729 182.49 26.5085C182.49 26.7043 182.393 26.8348 182.246 26.8348Z" fill="#3FB1B5"/>
</svg>

